<?xml version="1.0" encoding="UTF-8"?>
<svg id="Layer_1" data-name="Layer 1" xmlns="http://www.w3.org/2000/svg" viewBox="0 0 150 200">
  <defs>
    <style>
      .cls-1 {
        fill: #fff;
      }
    </style>
  </defs>
  <path class="cls-1" d="M70.12,133.82c-.95,5.62,5.84,4.47,3.77,1.47-.17-.25-3.61-1.64-3.77-1.47Z"/>
  <path class="cls-1" d="M90.08,159.01c0,2.47-10.8.75-12.71.72-5.47-.06-14.08,1.28-18.87.4-6.72-1.24-3.11-8.55-5.64-12.83l-18.6,7.04c.03,6.18-.33,12.44-.07,18.62.03.78.08,1.59.14,2.42,5.97.99,26.02,4.99,36.3,4.98,9.05,0,30.47-4.09,36.39-5.03l.06-.85c-.51-5.49.34-11,0-16.5-.13-2.04-.23-6.23-1.88-7.1-1.72-.9-9.6-3.49-11.59-3.88-1.18-.23-2.32-.31-3.52-.22v12.22ZM80.1,176.72l-3.02-.23-11.21-4.81c-3.74,1.07-9.84,6.92-11.7.77-.26-.86-1.56-8-1.46-8.41.27-1.14,1.69-.72,2.46-.58,2.54.49,9.35,4.7,10.7,4.73,2.42.04,13.13-6.28,14.66-3.86l-.43,12.4Z"/>
  <path class="cls-1" d="M79.1,141.3h-3.5c-.45,4.99,4.68,6.55,3.5,0Z"/>
  <path class="cls-1" d="M79.6,135.81h-3.5c-.35,2.7.75,3.85,3.5,3.5v-3.5Z"/>
  <path class="cls-1" d="M82.31,142.27c-.6.85-.04,3.37-.22,4.52,7.77-.99,2.41-7.65.22-4.52Z"/>
  <path class="cls-1" d="M73.63,168.01l-4.01,1.97c1.07.56,6.85,3.91,7.48,3.25v-5.98s-3.47.77-3.47.77Z"/>
  <path class="cls-1" d="M85.6,139.6l.49-3.78c-.86.07-2.35-.25-3.03.22-.6.42-.66,3.02-.43,3.25.11.11,2.74.49,2.98.32Z"/>
  <path class="cls-1" d="M91.37,96.87c-.86-.64-1.44-.5-2.41-.36-2.67.39-7.6,2.92-10.76,3.75-8.01,2.1-16.31,2.94-24.54,3.66,1.99,8.73-7.05,4.87-7.54,12.68-.05.75.05,1.52.02,2.26,3.66-.5,6.54-.8,7.98,3.25,2.69,7.58,2.19,18.33,3.01,26.42.28,2.75,1.01,5.5,1.21,8.27l27.24-.03v-7.48c-10.17,1.97-20.31-8.76-18.97-18.96,3.79-.35,6.48,2.7,10.37,2.87.93.04,7.89-.31,8.29-.44,1.62-.54.71-6.62,1.8-7.68,1.59-1.56,10.94-3.99,13.45-5.27.39-.54-3.32-11.13-3.94-12.68-.78-1.94-3.88-9.27-5.21-10.26ZM78.85,117.85c-3.26-2.42-2.72-8.73-4.24-12.25-.04-.58.28-.98.82-1.16,1.73-.56,3.17.44,3.93,1.93.47.91,2.63,9.94,2.61,10.85-.05,2.16-1.89,1.54-3.12.63ZM90.08,116.86c-6.35.13-5.07-8.61-7.49-12.72-.3-1.96,4.18.08,4.85.89.95,1.15,3.52,10.97,2.64,11.83Z"/>
  <path class="cls-1" d="M115.04,45.53v3.99c.52.51,3.66-.93,4.34-1.38.38-.25,1.37-.31.64-1.11-.18-.19-4.73-1.78-4.99-1.5Z"/>
  <path class="cls-1" d="M94.07,36.29c3.68-3.25,8.85-6.73,13.96-6.25,1.49-5.55,1.61-15.83-6.42-9.16-3.15,2.61-2.63,4.26-2.54,8.19-3.49.9-3.5-3.6-6.86-2.12-4.83,2.13-.04,6.9-.13,7.35-.5,2.42-6.05-2.16-7.75,1.25-1.36,2.74,2.84,3.59,3.86,5.36,1.9.95,4.33-3.25,5.88-4.62Z"/>
  <path class="cls-1" d="M52.14,78.45c-1.47,1.52,6.03,7.48,7.46,8.26,7.1,3.89,11.44,1.3,16.26-4.26,3.46-4,6.01-9.09,6.23-14.47l-5.99,3.74c-7.82,2.81-15.61,5.91-23.96,6.74Z"/>
  <path class="cls-1" d="M56.14,166.75c.12,1.19.24,5.64,1.29,5.96.93.28,5.93-2.68,5.19-3.47l-6.49-2.5Z"/>
  <path class="cls-1" d="M109.07,36.77c-.2-.95.26-2.42-.13-3.11-.94-1.66-3.4-.72-4.72-.19-2.34.94-11.04,6.61-11.89,8.56-1.06,2.42-1.84,9.07-4.6,9.89-1.46.43-8.92-1.25-11.37-1.3-4.88-.1-13.66.7-18.33,2.04-3.2.92-11,5.87-13.75,3.22-.34-.33-3.69-7.36-4.21-8.51-.7-1.55-.99-3.28-1.67-4.84-.27-.61.02-1.22-.97-.99-.51.25-3.58,6.9-3.99,7.99-5.57,14.94-9.67,44.57,10.62,50.23,11.57,3.23,42.9-3.02,51.52-12.08,6.54-6.88,17.09-32.2,15.99-41.42-.31-2.56-1.91-6.74-2.48-9.49ZM68.64,91.7c-7.2,1.45-20.49-7.85-20.98-15.72,12.27-2.12,25.08-5.2,34.77-13.43,1.37-.37,2.64,2.15,3.02,3.32,2.97,8.99-8.11,24.09-16.81,25.83ZM104.11,44.72c-.21-.38-2.05-6.13-2.04-6.47.01-.53.28-1.03.8-1.17,3.1-.86,5.15,5.09,5.48,7.44.33,2.27-3.21,2.05-4.24.2Z"/>
  <path class="cls-1" d="M115.78,52.01l-2.02,4.95-.22,3.52c4.18-.8,6.33-5.68,2.24-8.47Z"/>
  <g>
    <path d="M65.86,168.15c-1.35-.02-8.16-4.24-10.7-4.73-.77-.15-2.19-.57-2.46.58-.1.42,1.2,7.55,1.46,8.41,1.86,6.15,7.96.3,11.7-.77l11.21,4.81,3.02.23.43-12.4c-1.53-2.42-12.24,3.9-14.66,3.86ZM57.43,172.67c-1.05-.32-1.17-4.78-1.29-5.96l6.49,2.5c.73.79-4.27,3.75-5.19,3.47ZM69.62,169.94l4.01-1.97,3.47-.77v5.98c-.63.66-6.41-2.69-7.48-3.25Z"/>
    <path d="M82.43,62.5c-9.69,8.23-22.5,11.31-34.77,13.43.49,7.87,13.78,17.17,20.98,15.72,8.7-1.75,19.77-16.84,16.81-25.83-.38-1.17-1.66-3.69-3.02-3.32ZM75.86,82.41c-4.82,5.57-9.16,8.15-16.26,4.26-1.43-.78-8.93-6.74-7.46-8.26,8.36-.83,16.14-3.93,23.96-6.74l5.99-3.74c-.23,5.38-2.77,10.47-6.23,14.47Z"/>
    <path d="M102.87,37.04c-.52.14-.79.64-.8,1.17,0,.34,1.83,6.08,2.04,6.47,1.03,1.85,4.57,2.07,4.24-.2-.34-2.34-2.38-8.3-5.48-7.44Z"/>
    <path d="M75.43,104.41c-.54.17-.86.58-.82,1.16,1.52,3.52.97,9.82,4.24,12.25,1.23.91,3.07,1.53,3.12-.63.02-.91-2.15-9.93-2.61-10.85-.76-1.49-2.2-2.49-3.93-1.93Z"/>
    <path d="M82.59,104.1c2.42,4.12,1.14,12.86,7.49,12.72.88-.86-1.69-10.68-2.64-11.83-.67-.82-5.16-2.85-4.85-.89Z"/>
    <path d="M125,45.76c-1.74-1.2-8.79-2.38-10.01-3.97-.86-1.12-1.49-6.29-1.97-8.01-.3-1.09-1.44-1.99-1.44-3.01,0-1.06,1.95-4.59,1.98-7.01.11-9.4-12.1-10.06-17.22-3.2-.61.82-.61,2.14-1.28,2.71-1.05.9-3.69.5-5.46,1.53-3.47,2.03-2.04,5.04-3.27,6.71-.62.84-4.13,1.16-4.98,3.01-1.08,2.37,1.32,5.98,3.38,7.09.77.41,1.87.29,2.64.86,1.38,1.03.11,1.76-.17,2.89-.23.96.24,2.69-.94,3.08-1.17.39-4.73-.86-6.4-.97-5.82-.38-14.75.02-20.46,1.04-2.58.46-9.61,4-11.42,3.4-1.74-.57-5.03-11.43-6.41-13.57-1.95-3.03-5.07-2.4-7.12.2-6.46,8.19-11.67,28.28-10.71,38.56,1.05,11.14,7.91,21.44,18.56,25.35,1.17.43,7.06,1.65,7.27,1.96.3.47.12,2.35-.17,2.94-.38.76-2.73,1.45-3.7,2.28-1.9,1.63-3.75,4.86-3.57,7.43.4,5.78,6.64,4.71,7.3,5.71.41.62.08,1.87.34,2.65,1.48,4.53,1.43,6.95,1.88,11.59.19,1.98,1.91,5.89-.03,6.97-3.59.94-20.98,7.16-22.11,9.87-1.22,2.94-.3,5.45-.31,8.09,0,5.25.08,10.88.42,16.32-1.87-.05,25.68,5.59,41.43,5.75,10.98.11,40.49-5.75,40.49-5.75,0-.11.02-.21.02-.32.27-5.8.47-12.25.38-17.98-.02-1.61-.26-6.5-.63-7.75-.16-.55-1.35-2.29-1.8-2.69-1.9-1.65-11.99-4.77-14.91-5.55-1.59-.42-3.67.42-4.02-1.47-.36-1.92-.07-13.82.75-15.22.52-.55,1.24-.78,1.9-1.09,2.39-1.11,12.11-3.17,12.34-5.66-3.16-9.02-5.63-18.55-12-25.91,7.42-4.53,10.36-12.58,14.05-19.9,1.1-2.19,2.48-4.24,3.53-6.45.47-.99.25-2.06.87-3.13,1.75-3.02,10.78-2.8,9.97-9.9-.44-3.82-4.48-3.37,1.1-5.97,1.31-.61,5.38-1.13,1.91-3.54ZM84.33,35.51c1.69-3.42,7.24,1.16,7.75-1.25.09-.45-4.7-5.22.13-7.35,3.36-1.48,3.37,3.03,6.86,2.12-.09-3.93-.61-5.58,2.54-8.19,8.03-6.67,7.91,3.61,6.42,9.16-5.11-.48-10.28,3-13.96,6.25-1.55,1.37-3.97,5.56-5.88,4.62-1.02-1.77-5.22-2.62-3.86-5.36ZM93.6,146.98c2,.39,9.88,2.97,11.59,3.88,1.65.87,1.75,5.06,1.88,7.1.34,5.5-.52,11.01,0,16.5l-.06.85c-5.92.94-27.34,5.03-36.39,5.03-10.29,0-30.34-3.99-36.3-4.98-.06-.83-.1-1.64-.14-2.42-.26-6.18.1-12.44.07-18.62l18.6-7.04c2.53,4.28-1.07,11.59,5.64,12.83,4.79.88,13.4-.47,18.87-.4,1.91.02,12.71,1.74,12.71-.72v-12.22c1.2-.09,2.34,0,3.52.22ZM82.31,142.23c2.2-3.13,7.56,3.53-.22,4.52.18-1.15-.38-3.66.22-4.52ZM83.06,136c.68-.47,2.17-.15,3.03-.22l-.49,3.78c-.24.17-2.87-.21-2.98-.32-.22-.22-.17-2.83.43-3.25ZM96.58,107.09c.62,1.55,4.33,12.14,3.94,12.68-2.51,1.28-11.86,3.71-13.45,5.27-1.09,1.06-.18,7.14-1.8,7.68-.39.13-7.35.48-8.29.44-3.89-.16-6.57-3.22-10.37-2.87-1.34,10.2,8.8,20.93,18.97,18.96v7.48l-27.24.03c-.2-2.77-.93-5.52-1.21-8.27-.82-8.09-.32-18.84-3.01-26.42-1.44-4.06-4.31-3.75-7.98-3.25.03-.75-.07-1.52-.02-2.26.49-7.81,9.53-3.95,7.54-12.68,8.23-.72,16.53-1.56,24.54-3.66,3.15-.83,8.09-3.36,10.76-3.75.96-.14,1.55-.28,2.41.36,1.33.99,4.43,8.31,5.21,10.26ZM76.1,135.78h3.5s0,3.49,0,3.49c-2.74.36-3.85-.8-3.5-3.49ZM75.6,141.26h3.5c1.18,6.55-3.95,4.99-3.5,0ZM70.12,133.79c.16-.17,3.59,1.21,3.77,1.47,2.07,3.01-4.72,4.15-3.77-1.47ZM95.57,87.64c-8.62,9.06-39.95,15.3-51.52,12.08-20.29-5.66-16.19-35.29-10.62-50.23.41-1.09,3.48-7.74,3.99-7.99.99-.22.7.38.97.99.68,1.55.97,3.28,1.67,4.84.52,1.15,3.87,8.18,4.21,8.51,2.75,2.65,10.55-2.31,13.75-3.22,4.67-1.34,13.45-2.14,18.33-2.04,2.45.05,9.91,1.74,11.37,1.3,2.76-.82,3.54-7.46,4.6-9.89.85-1.95,9.55-7.62,11.89-8.56,1.32-.53,3.78-1.47,4.72.19.39.7-.07,2.17.13,3.11.58,2.75,2.18,6.93,2.48,9.49,1.1,9.22-9.45,34.54-15.99,41.42ZM113.54,60.45l.22-3.52,2.02-4.95c4.09,2.79,1.94,7.67-2.24,8.47ZM119.39,48.1c-.68.45-3.82,1.89-4.35,1.38v-3.99c.26-.27,4.81,1.31,4.99,1.5.73.8-.26.86-.64,1.11Z"/>
  </g>
</svg>