<?xml version="1.0" encoding="UTF-8"?>
<svg id="Layer_1" data-name="Layer 1" xmlns="http://www.w3.org/2000/svg" viewBox="0 0 150 200">
  <defs>
    <style>
      .cls-1 {
        fill: #fff;
      }
    </style>
  </defs>
  <path class="cls-1" d="M25.67,88.6l3.61-2.02-.47-5.93-4.48.65c-.23,1.21.41,7.23,1.34,7.3Z"/>
  <path class="cls-1" d="M62.99,127.33l.57,3.98,3.97-2.56c0-.8-3.73-1.66-4.54-1.42Z"/>
  <path class="cls-1" d="M74.95,128.18l5.12,2.57v-5.69c-.44-.46-5.41,2-5.12,3.12Z"/>
  <path class="cls-1" d="M98.87,49.04c1.13-6.35,1.31-12.87,3.42-19.06l-14.22,7.13-3.07.2c-2.96-1,1.79-11.97,1.34-12.45l-15.64,10.83-3.15,3.96,30.43,10.8c.65-.3.77-.75.89-1.4Z"/>
  <path class="cls-1" d="M70.01,101.61c.3-.91,1.58-6.76.1-6.72-2.89,3.33-7.29,4.57-11.43,5.64l.34,8.01c4.35-.58,9.49-2.34,11-6.93Z"/>
  <path class="cls-1" d="M57.12,84.24c2.58,3.69-2.41,14.43,4.18,12.65,5.03-1.36,7.74-5.41,9.82-9.54,1.14-2.27,2.81-1.83,3.25.43.9,4.66.23,13.76-2.83,17.63-2.78,3.51-11.26,5.29-11.7,5.95-.59.89-.31,5.77.38,6.21l27.01-4.44c1.65-10.37,3.36-21.11,2.66-31.57,3.34-3.15,11.46-3.17,8.34-9.94-9.37,1.09-7.84-1.24-7.4-9.12l-36.86-7.96-10.89,25.25c.11,1.62,11.76,1.17,14.05,4.44ZM69.45,64.23l.94.77-.1,1.33-7.41,9.07c-1.8.71-3.75-.01-3.02-2.11.2-.58,5.24-8.31,5.66-8.61,1.14-.82,2.62-.65,3.94-.44ZM51.85,73.25c-.84-1.34,4.31-11.51,5.83-11.9.79-.2,1.46.15,1.94.75,1.91,2.44-4.02,8.69-4.31,11.73-.73,1.07-2.96.21-3.46-.58Z"/>
  <path class="cls-1" d="M141.6,147.26l-3.38,11.33,5.08,1.77c-.05-2.28,3.67-9.79,2.15-11.24l-3.85-1.85Z"/>
  <path class="cls-1" d="M122.41,132.56c-6.42-4.28-24.04-15.27-30.92-16.4-1.25-.2-3.92.26-5.35.43-8.82,1.06-19.13,4.62-28.01,3.93-3.13-.24-18.66-4.15-21.35-5.42-2.42-1.14-3.86-3.27-4.41-5.84l-1.53-18.4c-1.07-1.57-6.86,1.17-8.02,2.3l-.77,36.94c.78,1.21,23.97,6.69,27.57,8.03,1.55.58,4.83,1.6,5.3,3.28.49,1.77-1.48,11.74-1.64,14.65-.39,7.23.18,14.7.03,21.94.59.65,50.16-7.07,50.16-7.07,1.84-.28,4.18-.83,4.56-1.82,2.34-6.2.25-18.47-1.74-27.55,1.87-.09,3.48,1.17,4.97,2.14,7.36,4.79,13.94,10.97,21.52,15.5,1.2.2.67-.19.9-.78.79-2.03,5.07-12.79,4.4-13.91-5.25-3.92-10.2-8.31-15.67-11.95ZM84.07,134.45l-1.33.77-10.94-4.99-9.13,5.66c-3.46.36-2.79-6.58-2.48-8.8.9-6.42,6.17-.77,9.93-.87,1.43-.04,13.93-8.95,13.93-3.17v11.39Z"/>
  <g>
    <path d="M86.33,49.6l24.77,9.95c4.73-4.97-8.52-6.07-8.86-7.76.68-6.25,1.68-12.34,3.17-18.44.67-2.74,3.77-7.05-.25-8.87l-17.1,8.31c-.3-.33,1.76-7.31,2.1-8.43.79-2.6,3.71-5.57-1.22-5.82-8.98,5.87-17.93,11.95-25.79,19.28l-16.1-2.75.55,3.15,38.74,11.38ZM70.7,35.65l15.64-10.83c.45.47-4.3,11.45-1.34,12.45l3.07-.2,14.22-7.13c-2.11,6.19-2.29,12.71-3.42,19.06-.12.66-.23,1.1-.89,1.4l-30.43-10.8,3.15-3.96Z"/>
    <path d="M70.13,126.19c-3.76.1-9.03-5.54-9.93.87-.31,2.21-.98,9.16,2.48,8.8l9.13-5.66,10.94,4.99,1.33-.77v-11.39c0-5.78-12.51,3.13-13.93,3.17ZM63.57,131.28l-.57-3.98c.81-.24,4.53.62,4.54,1.42l-3.97,2.56ZM80.07,130.71l-5.12-2.57c-.3-1.12,4.67-3.58,5.12-3.12v5.69Z"/>
    <path d="M62.87,75.36l7.41-9.07.1-1.33-.94-.77c-1.32-.21-2.8-.38-3.94.44-.42.3-5.46,8.04-5.66,8.61-.73,2.1,1.22,2.82,3.02,2.11Z"/>
    <path d="M59.62,62.07c-.48-.61-1.14-.96-1.94-.75-1.52.39-6.68,10.56-5.83,11.9.5.8,2.73,1.65,3.46.58.29-3.04,6.22-9.3,4.31-11.73Z"/>
    <path d="M149.47,149.34c-.52-1.77-5.65-3.78-7.48-5.07-15.05-10.59-29.88-24.47-48.1-29.93-.78-.23-1.62-.11-2.41-.14-.45-3.94.85-7.81,1.13-11.67.19-2.63-.16-5.32.01-7.96.28-4.13,2.03-7.82.56-12.25,2.35-.06,7.95-3.15,8.83-5.12,2.72-6.03-2-9.57-7.7-9.11.1-4.55.9-7.06-3.99-8.82-5.83-2.1-14.41-3.13-20.62-4.44-4.39-.92-16.15-5.31-19.52-1.53l-10.57,26.45c.12.87.15,2.1,1.02,2.57,3.37,1.82,9.02,1.71,12.74,2.61l2.21,32.12-18.54-5.09c-.96-6.77-1.4-14.07-2.58-20.76-.39-2.19-2.71-5.37-1.13-7.5.57-.77,6.18-2.65,2.31-4.53-1.53-.74-2.62.48-3.61.35-.59-.08-.47-1.99-2.38-2.33-.89-.15-5.71.38-6.79.59-3.24.65-.99,3.89-2.98,4.99-2.62,1.45-7.63-1.79-11.29-1.63-1.37.06-7.75,1.67-8.24,2.61.64,2.56,4.41.9,5.98.85,2.37-.07,4.75.04,7.11,0l-8.53,2.56c-1.02.66-.59,1.6.37,1.9,2.21.69,10.07-1.99,10.44-1.62-.35,4.69-9.06,3.72-10.55,5.67-.77,1.01.83,2.23,1.76,2.32,1.29.12,9.41-3.12,10.71-4.09,2-1.5,2.38-2.66,1.51-5.03l2.23.04c.94,3.42.37,3.43-2.28,5.32-.97,6.27-.23,12.98-.51,19.42-.18,4.27-2.86,16.38-.28,19.59.49.6,2.87,2.24,3.67,2.6,4.61,2.07,13.49,4.3,18.68,5.81,1.77.52,10.46,1.89,10.89,3.37-2.13,12.28-2.17,24.91-2.09,37.39-.28,3.72,14.65-.03,20.63-.96,0,.08,21.23-2.83,30.22-4.6l3.58-.78c3.48-.59,7.69-1.1,8.05-3.27,1.14-6.74-.2-16.93-1.67-23.58l25.35,18.24c1.73.25,1.52-3.34,2.32-3.48,2.03-.06,6.74,4.13,8.23,3.2,1.6-1.01.87-4.53,1.25-6.17.65-2.73,2.91-6.15,2.04-9.11ZM43.07,79.76l10.89-25.25,36.86,7.96c-.44,7.87-1.97,10.21,7.4,9.12,3.12,6.77-4.99,6.79-8.34,9.94.7,10.46-1.01,21.2-2.66,31.57l-27.01,4.44c-.7-.44-.97-5.32-.38-6.21.44-.67,8.92-2.45,11.7-5.95,3.06-3.87,3.73-12.97,2.83-17.63-.44-2.26-2.1-2.7-3.25-.43-2.08,4.13-4.79,8.19-9.82,9.54-6.59,1.77-1.6-8.96-4.18-12.65-2.29-3.27-13.94-2.82-14.05-4.44ZM59.02,108.51l-.34-8.01c4.14-1.07,8.54-2.32,11.43-5.64,1.48-.04.2,5.82-.1,6.72-1.51,4.59-6.65,6.35-11,6.93ZM24.34,81.26l4.48-.65.47,5.93-3.61,2.02c-.92-.08-1.57-6.1-1.34-7.3ZM133.68,158.39c-.23.59.3.98-.9.78-7.58-4.52-14.16-10.71-21.52-15.5-1.49-.97-3.11-2.23-4.97-2.14,1.99,9.07,4.08,21.35,1.74,27.55-.37.99-2.71,1.54-4.56,1.82,0,0-49.57,7.72-50.16,7.07.15-7.24-.42-14.71-.03-21.94.16-2.9,2.13-12.88,1.64-14.65-.47-1.68-3.75-2.7-5.3-3.28-3.6-1.34-26.79-6.82-27.57-8.03l.77-36.94c1.15-1.12,6.95-3.87,8.02-2.3l1.53,18.4c.55,2.56,2,4.69,4.41,5.84,2.68,1.27,18.21,5.18,21.35,5.42,8.88.69,19.18-2.87,28.01-3.93,1.43-.17,4.1-.63,5.35-.43,6.88,1.12,24.5,12.12,30.92,16.4,5.47,3.64,10.42,8.03,15.67,11.95.67,1.13-3.61,11.89-4.4,13.91ZM143.3,160.32l-5.08-1.77,3.38-11.33,3.85,1.85c1.51,1.45-2.2,8.97-2.15,11.24Z"/>
  </g>
</svg>