<?xml version="1.0" encoding="UTF-8"?>
<svg id="Layer_1" data-name="Layer 1" xmlns="http://www.w3.org/2000/svg" viewBox="0 0 150 200">
  <defs>
    <style>
      .cls-1 {
        fill: #fff;
      }
    </style>
  </defs>
  <path class="cls-1" d="M62.39,45.28c-5.68,1.23-8.55,11.98-1.98,14.24,7.25,2.5,15.27-2.89,11.69-10.68-.7-1.51-.82-1.9-2.44-2.55-1.33-.54-5.94-1.3-7.27-1.01ZM68.29,51.15c1.04,3.95-2.52,7.53-5.62,3.87-2.51-2.97,2.95-6.38,5.62-3.87Z"/>
  <path class="cls-1" d="M72.51,96.57l12.98-.5c.21-2.91-1.26-5.57-1.55-8.43l-10.4,1.49-1.04,7.44Z"/>
  <polygon class="cls-1" points="51.34 100.09 51.54 92.58 45.26 93.56 45.55 101.07 51.34 100.09"/>
  <path class="cls-1" d="M56.45,67l-4.23,21.36,3.71,3.08-.33,8.57c2.7.39,5.44,2.27,5.94,5.04,2.09-1.06,3.16-7.52,5.29-7.86.63-.1,1.44.54,2.33.32,2.69-.66-.6-8.98.99-10.29,1.69-1.4,12.76-2.25,12.88-2.9-2.41-15.45-2.65-31.11-.53-46.61-3.9,1.62-5.4,1.35-6.49-2.99-.89-.65-3.07,4.06-4.98,3.5l1.98,2.71c-.06.25-5.3,4.42-1.84,3.17,2.29-.82,4.36-4.24,7.51-2.43.77.48.8,1.76.19,2.39l-4.28,2.88c5.08,10.79-2.89,20.05-14.54,15.47-4.22-1.66-5.21-3.65-6.75-7.72-1.72,3.81-8.32,3.22-8.74,6.73-.13,1.12.16.57.74.75,2.27.71,10.55,2.68,11.16,4.85Z"/>
  <path class="cls-1" d="M56.06,148.24c1.33-.43,5.92-5.1,6.01-6.51-1.92-9.97-6.09-20.39-2.55-30.41l-2.56-8.19c-.81-.52-12.51,1.19-13.62,1.97-.54.38-.67.55-.79,1.21-.96,5.25.86,14.95,1.49,20.46.88,7.73.17,13.74,5.98,19.96,1.29,1.38,4.24,2.08,6.03,1.51Z"/>
  <path class="cls-1" d="M49.8,50.19c-.54.02-2.73,4.55-2.24,5.48,1.69-1.06,4.27-3.65,2.24-5.48Z"/>
  <path class="cls-1" d="M66.51,34.21l-15,10.82c-1.55,2.49,1.14,3.69,2.27,5.64.81-1.17,1.11-2.84,2.03-3.95.86-1.04,4.8-3.21,4.97-3.5.45-.77-1.9-9.74,3.99-.52l4.23-3.25c.43-1.14-1.65-.54-2.25-1.73-.51-1-.17-2.4-.24-3.5Z"/>
  <path class="cls-1" d="M88.95,27.51c-10.69-7.59-26.29-5.89-37.07.8-3.9,2.42-6.19,5.99-8.32,9.88,2.91.63,8.79-7.39,10.74-4.01l-.02,3.52c4.14-2.15,13.66-13.15,15.73-3.99.47.43,3.53-2.16,4.37-2.38,2.11-.55,4.7.42,4.62,2.88,1.96.28,1.99-1.83,4.12-1.42,3.73.72,2.34,4.86,2.34,7.14,0,21.1-.82,48.93,9.6,67.78.68,1.22,1.62,3.53,3.09,3.33l19.28-7.23.47-.95c-2.48-13.64-3.73-27.51-8.23-40.69-3.57-10.44-11.69-28.24-20.73-34.66Z"/>
  <path class="cls-1" d="M49.1,151.01c-.16,3.87-5.83,6.78-.17,8.28,11.88,3.15,35.52,2.18,45.28-5.86.69-.57,2.67-2.31,2.66-3.13-.48-1.14-1.2-4.32-2.63-4.34-1.32-.02-7.17,3.63-9.13,4.37-2.03.77-7.43,2.41-9.43,2.57-2.59.21-5.64-.86-7.5-2.63-.82-.78-2.7-4.61-3.9-4.32-3.57,5.95-8.97,5.82-15.19,5.05Z"/>
  <path class="cls-1" d="M110.7,110.56c-2.37.53-13.39,5.14-14.75,4.77-2.6-.71-4.38-6.83-5.85-9.13-.31-.49.05-.89-1.11-.64l-5,13.97c1.82.02,3.33-2.8,4.77-3.01,1.32-.19,3.55.57,3.19,2.21-.44,1.4-8.39,5.65-9.46,7.02-1.62,2.07-.17,5.12-2.29,6.7-.94-.12-2.09-.61-2.21-1.7-.12-1.17,1.33-8.15,1.74-9.75,1.52-5.83,4.82-11.15,6.5-16.95.25-.87,1.39-4.52.7-4.93-5.99-.06-12.01-.36-17.92.69-1.8.85-4.84,9.91-5.36,12.1-2.02,8.5-.25,17.25,2,25.7.74,2.76,4.29,11.17,7.23,11.77,5.15,1.03,18.15-6.12,22.1-9.64,5.68-5.08,13.85-18.29,15.71-25.7.3-1.2,1.23-2.71.01-3.47Z"/>
  <path class="cls-1" d="M50.94,162.78c-2.26-.45-4.25-1.61-6.56-1.79-3.19,4.62-6.83,8.94-10.38,13.33,8.92,1.28,24.22,3.15,36.54,3.04,11.47-.08,27.55-2.23,35.58-3.42l-8.34-17.94c-12.87,9.42-31.67,9.82-46.85,6.78Z"/>
  <g>
    <path d="M62.68,54.99c3.1,3.66,6.66.08,5.62-3.87-2.67-2.51-8.13.9-5.62,3.87Z"/>
    <path d="M120.01,89.72c-3.27-20.17-8.31-41.25-21.83-57.25-13.04-15.43-34.11-18.61-50.59-6-3.33,2.55-10.22,11.02-8.91,15.33,1.19,3.95,8.75-2.02,10.88-2.64.69.76-2.61,8.57-3.24,9.97-1.38,3.06-6.33,10.28-5.75,13.22.56,2.83,9.23,3.47,11.43,5.52l-3.99,21.62-6.39,1.6.49,11.13-2.98.85c-.26,5.82-.84,11.71-.55,17.65.31,6.35,1.09,17.14,3.8,22.64,1,2.02,2.51,3.74,3.6,5.69-4.66,8.87-10.71,16.77-17.05,24.45-.62.95-1.2,1.79-1.57,2.32-.2.29-.04.68.3.75,4.14.8,25.2,4.74,42.13,4.74.27,0,.54,0,.8,0,16.01-.1,39.69-2.98,40.93-3.19,0,0,.74-.19.24-1.09,0,0-1.29-2.4-2-3.7-1.53-2.82-2.59-5.79-3.72-8.52-2.88-6.96-3.57-14.85-8.47-21.06.33-1.57,1.98-1.97,2.91-3.08,7.54-8.99,13.91-20.4,15.21-32.19l6.69-1.54c.27-.49.39-1.02.39-1.58.02-4.17-2.01-11.18-2.74-15.65ZM49.8,50.15c2.03,1.83-.55,4.42-2.24,5.48-.48-.93,1.7-5.46,2.24-5.48ZM45.29,62.12c-.58-.18-.87.37-.74-.75.42-3.51,7.02-2.92,8.74-6.73,1.53,4.07,2.53,6.06,6.75,7.72,11.65,4.58,19.62-4.68,14.54-15.47l4.28-2.88c.6-.63.58-1.91-.19-2.39-3.16-1.81-5.22,1.61-7.51,2.43-3.46,1.25,1.78-2.92,1.84-3.17l-1.98-2.71c1.91.56,4.09-4.15,4.98-3.5,1.09,4.34,2.59,4.61,6.49,2.99-2.12,15.5-1.87,31.16.53,46.61-.12.65-11.19,1.5-12.88,2.9-1.58,1.31,1.71,9.64-.99,10.29-.89.22-1.7-.42-2.33-.32-2.13.34-3.2,6.81-5.29,7.86-.5-2.77-3.23-4.65-5.94-5.04l.33-8.57-3.71-3.08,4.23-21.36c-.61-2.17-8.89-4.13-11.16-4.85ZM66.76,37.68c.6,1.19,2.68.59,2.25,1.73l-4.23,3.25c-5.89-9.22-3.53-.24-3.99.52-.17.29-4.12,2.46-4.97,3.5-.92,1.11-1.22,2.78-2.03,3.95-1.13-1.95-3.82-3.15-2.27-5.64l15-10.82c.08,1.1-.26,2.49.24,3.5ZM69.66,46.25c1.62.65,1.74,1.04,2.44,2.55,3.59,7.8-4.43,13.18-11.69,10.68-6.58-2.26-3.7-13.01,1.98-14.24,1.33-.29,5.94.47,7.27,1.01ZM83.94,87.61c.28,2.87,1.75,5.53,1.55,8.43l-12.98.5,1.04-7.44,10.4-1.49ZM51.54,92.54l-.2,7.51-5.79.98-.29-7.51,6.28-.98ZM44.05,126.73c-.63-5.51-2.45-15.21-1.49-20.46.12-.66.25-.83.79-1.21,1.11-.77,12.82-2.49,13.62-1.97l2.56,8.19c-3.54,10.02.63,20.44,2.55,30.41-.09,1.41-4.68,6.08-6.01,6.51-1.79.57-4.74-.13-6.03-1.51-5.81-6.22-5.1-12.24-5.98-19.96ZM64.29,145.93c1.19-.29,3.08,3.54,3.9,4.32,1.86,1.76,4.91,2.84,7.5,2.63,2-.16,7.4-1.8,9.43-2.57,1.96-.74,7.8-4.4,9.13-4.37,1.43.03,2.15,3.21,2.63,4.34,0,.82-1.97,2.57-2.66,3.13-9.76,8.04-33.39,9.01-45.28,5.86-5.66-1.5,0-4.42.17-8.28,6.21.77,11.62.91,15.19-5.05ZM97.79,155.96l8.34,17.94c-8.03,1.19-24.11,3.35-35.58,3.42-12.32.1-27.62-1.77-36.54-3.04,3.54-4.39,7.18-8.71,10.38-13.33,2.31.18,4.31,1.34,6.56,1.79,15.18,3.04,33.98,2.64,46.85-6.78ZM110.69,113.99c-1.86,7.42-10.03,20.63-15.71,25.7-3.94,3.52-16.95,10.67-22.1,9.64-2.95-.59-6.5-9.01-7.23-11.77-2.25-8.44-4.02-17.2-2-25.7.52-2.19,3.56-11.25,5.36-12.1,5.91-1.05,11.93-.75,17.92-.69.69.42-.45,4.06-.7,4.93-1.67,5.8-4.98,11.12-6.5,16.95-.42,1.6-1.87,8.58-1.74,9.75.11,1.09,1.27,1.58,2.21,1.7,2.12-1.58.67-4.63,2.29-6.7,1.07-1.37,9.02-5.62,9.46-7.02.36-1.64-1.86-2.4-3.19-2.21-1.43.2-2.95,3.03-4.77,3.01l5-13.97c1.16-.25.8.15,1.11.64,1.48,2.29,3.25,8.42,5.85,9.13,1.36.37,12.37-4.24,14.75-4.77,1.22.76.29,2.27-.01,3.47ZM117.44,103.77l-19.28,7.23c-1.48.2-2.42-2.11-3.09-3.33-10.42-18.84-9.6-46.68-9.6-67.78,0-2.28,1.39-6.42-2.34-7.14-2.12-.41-2.15,1.7-4.12,1.42.08-2.46-2.51-3.43-4.62-2.88-.84.22-3.9,2.81-4.37,2.38-2.07-9.16-11.6,1.84-15.73,3.99l.02-3.52c-1.95-3.38-7.83,4.64-10.74,4.01,2.13-3.9,4.43-7.46,8.32-9.88,10.77-6.69,26.38-8.39,37.07-.8,9.04,6.42,17.16,24.22,20.73,34.66,4.5,13.18,5.75,27.05,8.23,40.69l-.47.95Z"/>
  </g>
</svg>