<?xml version="1.0" encoding="UTF-8"?>
<svg id="Layer_1" data-name="Layer 1" xmlns="http://www.w3.org/2000/svg" viewBox="0 0 150 200">
  <defs>
    <style>
      .cls-1 {
        fill: #fff;
      }
    </style>
  </defs>
  <path class="cls-1" d="M58.02,56.71c.67-1.01-.84-2.14-1.67-1.98l-1.35,2.3c.42.66,2.62.27,3.01-.32Z"/>
  <path class="cls-1" d="M74.75,61.66c1.54,2.4-.63,3.39-1.1,5.49l6.05-1.65c.76-1-4.06-4.55-4.95-3.84Z"/>
  <path class="cls-1" d="M67.95,60.62c-1.82.6-.23,4.62,1.02,4.32l1.92-3.57c-.68-.99-1.92-1.09-2.94-.75Z"/>
  <path class="cls-1" d="M52.22,109.77c4.34-5.3-1.49-3.58-4.97-5.25-1.79,5.68-.52,11.94,4.97,5.25Z"/>
  <path class="cls-1" d="M58.16,103.33c1.26-2.78,3.12-5.48,2.84-8.7-3.7.13-4.77,3.49-7.42,4.96l-1.84-1.5.46-4.01c-3.15.34-4.35,4.36-5.49,6.85.21,1.01,10.08,3.27,11.46,2.4Z"/>
  <path class="cls-1" d="M52.75,147.94c.98.22,1.09-.29,1.56-.91,2.05-2.7,3.45-7.88,5.7-10.8l5.94-8.62-15.4-2.2c-.07,3.03,1.87,5.58,2.2,8.51.51,4.52-.76,9.4,0,14.02Z"/>
  <path class="cls-1" d="M100.27,141.83c-2.19.46-7.56,1.63-9.23.55-.14-.09-2.25-2.18-2.35-2.32-1.18-1.78-3.05-9.84-3.58-10.17l-13.63-.89c-.61.36-1.22.65-1.69,1.21-2.35,2.79-5.16,7.7-7.04,10.95-3,5.2-5.37,10.74-8.11,16.08-1.1,1.56-2.83,1.84-4.64,1.69.29-5.22-1.8-10.57-2.19-15.67-.46-5.94.58-12.02-.54-17.91-6.23.49-14.15,5.05-20.2,6.63-.15,6.46-1.01,12.9-1.37,19.36-.12,2.09-.2,5.7-.24,8.35-.05,3.99.05,7.08.44,10.54,12.63,1.64,37.32,1.22,55.16.62.19-6.53.85-19.08,2.8-20.19.73-.42,2.27-.17,2.97.38,1.73,1.35-.18,8.46-.32,10.77-.07,1.19,0,5.62-.12,8.84,6.32-.24,11.31-.48,13.82-.61,1.89-9.63,5.18-18.68,5.36-28.63,0-.26-.02-.54-.05-.77-1.94.46-3.74.87-5.25,1.19Z"/>
  <path class="cls-1" d="M105.23,36.97c-6.51-8.02-17.19-8.39-26.84-7.12-8.38,1.1-16.37,5.51-22.89,10.65,5.3.35,11.39-6.18,14.08,1.41,5.88-2.38,10.89-5.77,13.17,2.72,6.58-3.59,11.36-5.19,11.81,4.38,3.26-.12,4.89-5.95,8.42-3.75,3.71,2.31-3.53,5.15-4.6,6.75-.49.74-2.11,5.67-2.45,6.89-5.03,17.97-7.87,44.67-6.89,62.91.12,2.24,3.07,16.91,4.66,17.16l29.51-8.29.49-1.16c-.35-7.68.01-16.01-.54-23.61-1.34-18.46-6.23-54.51-17.92-68.93Z"/>
  <path class="cls-1" d="M84.71,94.96c1.04-8.39,3.97-16.69,3.93-25.21l4.74-16.54c-2.12-2.07-3.46-4.4-3.22-7.5-.54-.62-6.25,3.57-7.56,3.76-.54.08-3.56-.89-3.86-1.14-.89-.77-1.4-4.63-1.24-5.91-2.98,1.54-6.69,2.1-9.15,4.36l-3.77-3.25c-1.03,1.9-6.08,6.89-6.34,8.51-.2,1.22,2.83,1.39,3.59,3.03,2.34,5.09-6.77,4.65-9.63,5.21l-7.14,9.36c-.49,1.26,2.32.77,3.33,1.06,1.43.4,9.99,3.14,10.32,3.71.61,2.65-8.55,16.64-7.61,17.49,1.62-.65,3.09.98,4.1,1.05,1.37.09,3.44-1.22,5.52-1.08,6.72.45,5.02,7.77,1.93,11.57.24.19,5.1-1.93,5.69-2.28,2.66-1.59,5.18-6.78,8.07-4.04,1.39,1.31-1.6,4.55-2.74,5.52-1.67,1.42-7.7,3.92-9.89,4.41-1.55.35-3.99-.07-4.98.52-.75.45-3.07,4.9-4.38,6.07-5.41,4.85-9.33,2.07-12.67-3.05l-3.31,9.89,45.66,5.5c.3-10.31-.66-20.75.6-31ZM77.51,70.18c-7.82,1.66-12.48-3.75-14.79-10.46,1.53-1.68,3.78-2.2,5.93-2.51-1.04-7.29,4.6-5.8,3.36.05,2.47.54,2.13-3.3,4.95-2.74v4.94c.19.24,3.89-2.97,5.5-1.96l1.01,2.15-2.02,2.27c4.37,4.95,1.42,7.12-3.93,8.26Z"/>
  <g>
    <path d="M83.46,59.61l-1.01-2.15c-1.61-1.01-5.32,2.2-5.49,1.96v-4.94c-2.83-.56-2.48,3.28-4.95,2.74,1.24-5.85-4.39-7.34-3.36-.05-2.15.31-4.4.83-5.93,2.51,2.31,6.71,6.98,12.12,14.79,10.46,5.35-1.14,8.3-3.3,3.93-8.26l2.02-2.27ZM68.97,64.91c-1.25.3-2.84-3.72-1.02-4.32,1.02-.34,2.26-.23,2.94.75l-1.92,3.57ZM79.7,65.46l-6.05,1.65c.47-2.1,2.64-3.09,1.1-5.49.89-.72,5.71,2.83,4.95,3.84Z"/>
    <path d="M128.68,109.68c-1.06-21-5.59-57.72-19.28-74.17-13.62-16.38-42.91-9.89-57.22,2.74-1.38,1.21-7.1,6.29-5.99,7.93,4.49,2.02,7.76-.86,11.83-2.1.55-.17,2.22-1.14,1.87.21l-18.6,26.39c0,1.74,10.04,4.48,11.98,4.68-.99,5.07-4.89,9.36-6.98,14.15-2.86,8.54-7.77,16.24-11.16,24.57-.45,1.11-2.28,5.31-2.21,6.03.17,1.81,2.84,2.83,5.88,3.48-5.39,1.53-10.62,3.61-15.37,6.59.55,6.07-1.43,11.96-1.92,17.91-.28,3.38-.58,8.75-.58,12.06,0,4.56.88,9.47,1.12,14.04,0,0,49.29.14,63.53,0,6.25-.06,18.46-.77,18.46-.77,2.45-11.12,6.39-22.1,4.66-33.61,5.83-1.45,12.27-3.23,16.23-4.71,1.67-.62,3.52-1.52,3.75-3.4.67-5.5.28-16.23-.01-22.04ZM56.36,54.7c.83-.17,2.34.97,1.67,1.98-.39.59-2.59.98-3.01.32l1.35-2.3ZM52.19,94.04l-.46,4.01,1.84,1.5c2.66-1.47,3.72-4.83,7.42-4.96.28,3.22-1.58,5.92-2.84,8.7-1.38.87-11.25-1.39-11.46-2.4,1.14-2.49,2.34-6.51,5.49-6.85ZM47.25,104.48c3.48,1.67,9.31-.05,4.97,5.25-5.48,6.69-6.76.43-4.97-5.25ZM38.44,120.42l3.31-9.89c3.35,5.12,7.27,7.9,12.67,3.05,1.3-1.17,3.62-5.62,4.38-6.07.99-.59,3.44-.17,4.98-.52,2.19-.49,8.22-2.99,9.89-4.41,1.14-.97,4.13-4.21,2.74-5.52-2.89-2.74-5.41,2.45-8.07,4.04-.59.35-5.45,2.48-5.69,2.28,3.09-3.8,4.79-11.12-1.93-11.57-2.07-.14-4.15,1.18-5.52,1.08-1.02-.07-2.48-1.7-4.1-1.05-.94-.85,8.22-14.84,7.61-17.49-.33-.57-8.88-3.3-10.32-3.71-1.01-.28-3.82.2-3.33-1.06l7.14-9.36c2.85-.56,11.97-.11,9.63-5.21-.76-1.64-3.79-1.82-3.59-3.03.27-1.62,5.32-6.61,6.34-8.51l3.77,3.25c2.46-2.26,6.17-2.81,9.15-4.36-.15,1.28.35,5.14,1.24,5.91.29.25,3.31,1.22,3.86,1.14,1.3-.19,7.01-4.38,7.56-3.76-.24,3.1,1.1,5.43,3.22,7.5l-4.74,16.54c.04,8.52-2.89,16.81-3.93,25.21-1.27,10.24-.31,20.69-.6,31l-45.66-5.5ZM52.75,133.88c-.33-2.93-2.27-5.48-2.2-8.51l15.4,2.2-5.94,8.62c-2.24,2.91-3.64,8.1-5.7,10.8-.47.62-.58,1.13-1.56.91-.76-4.61.51-9.49,0-14.02ZM100.2,170.02c-2.51.13-7.5.37-13.82.61.12-3.22.04-7.65.12-8.84.14-2.31,2.06-9.42.32-10.77-.7-.55-2.23-.8-2.97-.38-1.95,1.11-2.62,13.65-2.8,20.19-17.84.6-42.53,1.02-55.16-.62-.4-3.46-.5-6.55-.44-10.54.04-2.66.12-6.27.24-8.35.36-6.46,1.22-12.9,1.37-19.36,6.04-1.57,13.96-6.14,20.2-6.63,1.12,5.89.08,11.97.54,17.91.39,5.11,2.49,10.46,2.19,15.67,1.81.16,3.54-.13,4.64-1.69,2.74-5.34,5.11-10.88,8.11-16.08,1.88-3.26,4.69-8.16,7.04-10.95.47-.56,1.07-.85,1.69-1.21l13.63.89c.53.33,2.4,8.39,3.58,10.17.09.14,2.21,2.23,2.35,2.32,1.67,1.08,7.04-.09,9.23-.55,1.5-.32,3.3-.73,5.25-1.19.03.24.05.51.05.77-.18,9.96-3.47,19.01-5.36,28.63ZM123.21,130.64l-29.51,8.29c-1.6-.26-4.54-14.92-4.66-17.16-.98-18.24,1.87-44.94,6.89-62.91.34-1.22,1.96-6.15,2.45-6.89,1.07-1.6,8.31-4.44,4.6-6.75-3.52-2.19-5.15,3.63-8.42,3.75-.45-9.57-5.24-7.97-11.81-4.38-2.28-8.49-7.29-5.11-13.17-2.72-2.69-7.59-8.77-1.06-14.08-1.41,6.53-5.14,14.52-9.55,22.89-10.65,9.65-1.27,20.34-.9,26.84,7.12,11.69,14.42,16.57,50.48,17.92,68.93.55,7.6.19,15.94.54,23.61l-.49,1.16Z"/>
  </g>
</svg>