<svg width="10" height="21" viewBox="0 0 10 21" fill="none" xmlns="http://www.w3.org/2000/svg">
<path d="M4.79107 20.4259C4.79107 18.6527 4.86308 16.9937 4.86308 15.2205C4.86308 14.4849 4.94793 13.7172 4.96139 12.9817C4.9715 12.4295 4.96753 11.801 5.00309 11.2485C5.03519 10.7495 5.00709 10.2411 5.00709 9.74151V6.04946C5.00709 5.40947 4.86308 4.78778 4.86308 4.15069C4.86308 3.64661 4.79107 3.11211 4.79107 2.59098M1.06201 1.1965C1.06201 2.34011 1.10528 3.55226 1.22815 4.71698C1.33549 5.73454 1.28698 6.81781 1.85116 7.63898C2.23371 8.19577 2.96778 8.99071 3.68918 9.31394C4.04044 9.47133 4.47778 9.58831 4.87485 9.64174C5.10658 9.67291 5.30987 9.71606 5.54771 9.71606C5.80524 9.71606 5.98842 9.60096 6.22056 9.57524C6.8165 9.50921 7.63452 8.53834 7.93356 8.15109C8.23261 7.76384 8.30844 7.3638 8.40526 7.0092C8.53769 6.52417 8.57471 5.96991 8.61293 5.49149C8.65392 4.97847 8.68769 4.46739 8.68769 3.94248C8.68769 3.53111 8.67991 3.02149 8.61293 2.63321C8.51496 2.06524 8.50322 1.25274 8.16436 0.774048" stroke="black" stroke-width="1.3" stroke-linecap="round"/>
</svg>
