<svg width="35" height="15" viewBox="0 0 35 15" fill="none" xmlns="http://www.w3.org/2000/svg">
<path d="M0.872803 7.54901C3.80729 7.54901 6.55283 7.66817 9.48732 7.66817C10.7046 7.66817 11.9751 7.80859 13.1922 7.83088C14.1061 7.84761 15.1462 7.84103 16.0607 7.89988C16.8864 7.95302 17.7278 7.9065 18.5546 7.9065C20.5913 7.9065 22.6279 7.9065 24.6646 7.9065C25.7238 7.9065 26.7526 7.66817 27.8069 7.66817C28.6412 7.66817 29.5257 7.54901 30.3881 7.54901" stroke="black" stroke-width="1.5" stroke-linecap="round"/>
<path d="M32.6959 1.37842C30.8033 1.37842 28.7973 1.45002 26.8698 1.65336C25.1858 1.831 23.3931 1.75071 22.0341 2.6844C21.1126 3.31749 19.7971 4.53231 19.2621 5.72618C19.0017 6.30747 18.8081 7.03125 18.7197 7.68837C18.6681 8.07186 18.5967 8.40829 18.5967 8.80189C18.5967 9.22809 18.7872 9.53124 18.8297 9.91541C18.939 10.9016 20.5457 12.2554 21.1866 12.7503C21.8274 13.2452 22.4895 13.3707 23.0763 13.5309C23.879 13.7501 24.7963 13.8113 25.588 13.8746C26.437 13.9424 27.2828 13.9983 28.1515 13.9983C28.8323 13.9983 29.6757 13.9854 30.3182 13.8746C31.2582 13.7125 32.6028 13.693 33.395 13.1323" stroke="black" stroke-width="1.5" stroke-linecap="round"/>
</svg>
