<svg width="10" height="21" viewBox="0 0 10 21" fill="none" xmlns="http://www.w3.org/2000/svg">
<path d="M4.95946 0.857666C4.95946 2.63086 4.88746 4.28987 4.88746 6.06306C4.88746 6.79864 4.80261 7.56635 4.78914 8.30179C4.77904 8.85399 4.78301 9.4825 4.74745 10.0351C4.71534 10.534 4.74345 11.0424 4.74345 11.542L4.74345 15.2341C4.74345 15.8741 4.88746 16.4958 4.88746 17.1328C4.88746 17.6369 4.95946 18.1714 4.95946 18.6926M8.68769 20.0874C8.68769 18.9438 8.64443 17.7316 8.52156 16.5669C8.41422 15.5494 8.46273 14.4661 7.89854 13.6449C7.516 13.0881 6.78193 12.2932 6.06053 11.97C5.70927 11.8126 5.27193 11.6956 4.87485 11.6422C4.64313 11.611 4.43983 11.5678 4.202 11.5678C3.94446 11.5678 3.76129 11.6829 3.52915 11.7087C2.93321 11.7747 2.11519 12.7456 1.81614 13.1328C1.5171 13.5201 1.44126 13.9201 1.34444 14.2747C1.21201 14.7597 1.175 15.314 1.13677 15.7924C1.09579 16.3054 1.06201 16.8165 1.06201 17.3414C1.06201 17.7528 1.0698 18.2624 1.13677 18.6507C1.23474 19.2187 1.24649 20.0312 1.58534 20.5098" stroke="black" stroke-width="1.3" stroke-linecap="round"/>
</svg>
