<svg width="35" height="15" viewBox="0 0 35 15" fill="none" xmlns="http://www.w3.org/2000/svg">
<path d="M33.5664 7.82819C30.6319 7.82819 27.8864 7.70902 24.9519 7.70902C23.7346 7.70902 22.4641 7.5686 21.247 7.54632C20.3331 7.52959 19.293 7.53616 18.3785 7.47732C17.5528 7.42418 16.7114 7.4707 15.8846 7.4707C13.8479 7.4707 11.8113 7.4707 9.77458 7.4707C8.71544 7.4707 7.6866 7.70902 6.63226 7.70902C5.79805 7.70902 4.9135 7.82818 4.05107 7.82818" stroke="black" stroke-width="1.5" stroke-linecap="round"/>
<path d="M1.74334 13.9984C3.63592 13.9984 5.64193 13.9268 7.56945 13.7235C9.25343 13.5458 11.0462 13.6261 12.4051 12.6924C13.3266 12.0593 14.6421 10.8445 15.1771 9.65066C15.4375 9.06936 15.6311 8.34558 15.7195 7.68846C15.7711 7.30497 15.8425 6.96854 15.8425 6.57494C15.8425 6.14874 15.6521 5.84559 15.6095 5.46142C15.5002 4.47519 13.8935 3.12144 13.2526 2.62654C12.6118 2.13164 11.9497 2.00614 11.3629 1.84591C10.5602 1.62675 9.64296 1.56549 8.8512 1.50223C8.00219 1.4344 7.1564 1.37851 6.28771 1.37851C5.60693 1.37851 4.76355 1.3914 4.12098 1.50223C3.18102 1.66436 1.8364 1.6838 1.04421 2.24458" stroke="black" stroke-width="1.5" stroke-linecap="round"/>
</svg>
