<svg width="19" height="21" viewBox="0 0 19 21" fill="none" xmlns="http://www.w3.org/2000/svg">
<path d="M1.72795 10.5344C1.8687 12.5034 2.58064 15.6916 5.55375 19.2249C6.10453 18.6003 7.46264 17.0817 8.48876 16.0035C9.77141 14.6558 10.536 13.9602 11.8053 12.7429C13.0746 11.5256 16.3712 8.25781 17.1076 6.15633C17.6991 4.46831 17.2509 3.43907 16.6572 2.61304C16.0635 1.78701 14.8836 1.49886 13.8116 1.78704C12.8373 2.04894 11.4368 3.76518 10.6998 4.76511C9.96276 5.76505 9.29911 7.11576 8.90389 7.81517C8.61001 7.36325 7.62704 5.86759 7.20611 5.34066C6.81237 4.84779 6.21811 4.26155 5.26198 4.24463C4.30586 4.22771 3.47128 4.36363 2.69641 5.34066C1.92154 6.3177 1.57741 8.42849 1.72795 10.5344Z" fill="#FFE80E" stroke="black" stroke-width="1.5"/>
</svg>
