<svg width="12" height="11" viewBox="0 0 12 11" fill="none" xmlns="http://www.w3.org/2000/svg">
<path d="M5.78251 9.86216C6.97229 9.7771 8.89875 9.34691 11.0338 7.55039C10.6564 7.21757 9.73877 6.39692 9.08726 5.77688C8.27288 5.00183 7.85255 4.53982 7.11698 3.77285C6.38141 3.00587 4.40685 1.01387 3.13701 0.56887C2.11701 0.211426 1.49509 0.482277 0.99595 0.841023C0.496812 1.19977 0.322696 1.91272 0.496833 2.56053C0.655085 3.14925 1.69214 3.99552 2.29636 4.44086C2.90058 4.8862 3.71676 5.28722 4.13938 5.52603C3.8663 5.70361 2.96254 6.29758 2.64414 6.55193C2.34631 6.78985 1.99207 7.14894 1.98185 7.72669C1.97163 8.30443 2.05376 8.80873 2.64414 9.27696C3.23452 9.74518 4.50999 9.95312 5.78251 9.86216Z" fill="#FFE80E" stroke="black" stroke-width="0.9"/>
</svg>
