<svg width="197" height="33" viewBox="0 0 197 33" fill="none" xmlns="http://www.w3.org/2000/svg">
<path fill-rule="evenodd" clip-rule="evenodd" d="M0.893827 1.05661C0.537851 1.33044 0.359863 1.65904 0.359863 2.0424V30.8764C0.359863 31.2598 0.537851 31.5884 0.893827 31.8622C1.27718 32.136 1.729 32.2729 2.24927 32.2729H3.60472C4.12499 32.2729 4.56311 32.136 4.91909 31.8622C5.27506 31.5884 5.45305 31.2598 5.45305 30.8764V2.0424C5.45305 1.65904 5.27506 1.33044 4.91909 1.05661C4.56311 0.782788 4.12499 0.645874 3.60472 0.645874H2.24927C1.729 0.645874 1.27718 0.782788 0.893827 1.05661ZM191.831 11.9824C190.298 10.9966 188.518 10.5037 186.492 10.5037C184.52 10.5037 182.795 10.9692 181.316 11.9002C179.865 12.8312 178.729 14.1182 177.907 15.7612C177.113 17.4041 176.716 19.2799 176.716 21.3883C176.716 23.4694 177.141 25.3314 177.989 26.9744C178.866 28.6174 180.071 29.918 181.604 30.8764C183.165 31.8075 184.972 32.273 187.026 32.273C188.97 32.273 190.668 31.8075 192.119 30.8764C193.57 29.9454 194.693 28.6721 195.487 27.0565C196.309 25.441 196.719 23.62 196.719 21.5937C196.719 19.4852 196.281 17.5958 195.405 15.9255C194.556 14.2551 193.365 12.9407 191.831 11.9824ZM183.74 14.0771C184.507 13.3378 185.424 12.9681 186.492 12.9681C188.244 12.9681 189.613 13.7759 190.599 15.3915C191.585 17.0071 192.078 19.0745 192.078 21.5937C192.078 22.9628 191.914 24.2772 191.585 25.5368C191.256 26.7964 190.722 27.8233 189.983 28.6174C189.244 29.4115 188.258 29.8085 187.026 29.8085C185.438 29.8085 184.096 29.1376 183 27.7959C181.905 26.4267 181.358 24.2909 181.358 21.3883C181.358 19.7727 181.563 18.3351 181.974 17.0755C182.384 15.7886 182.973 14.7891 183.74 14.0771ZM172.681 11.818C173.065 12.0919 173.366 12.3794 173.585 12.6806C173.832 12.9544 173.955 13.2145 173.955 13.461C173.955 13.6527 173.859 13.8307 173.667 13.995L172.928 14.5289C172.654 14.7206 172.394 14.8164 172.147 14.8164C171.901 14.8164 171.696 14.7343 171.531 14.57C170.819 13.9676 170.217 13.5705 169.724 13.3788C169.231 13.1598 168.725 13.0503 168.204 13.0503C167.301 13.0503 166.424 13.4747 165.576 14.3235C164.754 15.1724 164.083 16.2951 163.563 17.6916C163.043 19.0881 162.783 20.6079 162.783 22.2508V30.5067C162.783 31.4104 162.331 31.8622 161.427 31.8622H159.332C158.949 31.8622 158.62 31.7253 158.347 31.4514C158.073 31.1776 157.936 30.849 157.936 30.4657V12.2698C157.936 11.3662 158.388 10.9144 159.291 10.9144H161.427C162.331 10.9144 162.783 11.3251 162.783 12.1466C163.549 11.6537 164.384 11.2704 165.288 10.9965C166.192 10.7227 167.164 10.5858 168.204 10.5858C169.053 10.5858 169.861 10.6816 170.628 10.8733C171.394 11.0376 172.079 11.3525 172.681 11.818ZM146.422 32.2729C147.325 32.2729 147.777 31.8211 147.777 30.9175V13.3788H151.679C152.583 13.3788 153.035 12.9681 153.035 12.1466C153.035 11.3251 152.583 10.9144 151.679 10.9144H147.777V2.00132C147.777 1.09769 147.325 0.645874 146.422 0.645874H144.286C143.382 0.645874 142.93 1.09769 142.93 2.00132V10.9144H139.028C138.125 10.9144 137.673 11.3251 137.673 12.1466C137.673 12.9681 138.125 13.3788 139.028 13.3788H142.93V30.9175C142.93 31.8211 143.382 32.2729 144.286 32.2729H146.422ZM134.583 30.3836C134.583 30.8217 134.446 31.1777 134.172 31.4515C133.899 31.7253 133.57 31.8622 133.187 31.8622H130.886C130.503 31.8622 130.175 31.7253 129.901 31.4515C129.627 31.1503 129.49 30.7806 129.49 30.3425V25.66C129.49 24.5373 129.476 23.6885 129.449 23.1134V21.5937C129.449 18.8554 129.148 16.7333 128.545 15.2272C127.97 13.7212 127.012 12.9681 125.67 12.9681C123.972 12.9681 122.726 13.3378 121.932 14.0771C121.138 14.7891 120.741 15.9528 120.741 17.5684V30.4657C120.741 30.8491 120.604 31.1777 120.33 31.4515C120.057 31.7253 119.728 31.8622 119.345 31.8622H116.88C116.497 31.8622 116.168 31.7253 115.894 31.4515C115.621 31.1777 115.484 30.8491 115.484 30.4657V11.9002C115.484 11.5168 115.621 11.1883 115.894 10.9144C116.168 10.6406 116.497 10.5037 116.88 10.5037H119.345C119.947 10.5037 120.371 10.7638 120.618 11.2841C122.124 10.7638 123.808 10.5037 125.67 10.5037C127.614 10.5037 129.161 10.8049 130.311 11.4073C131.462 12.0097 132.338 12.8449 132.94 13.9128C133.543 14.9534 133.953 16.1445 134.172 17.4863C134.391 18.828 134.515 20.2382 134.542 21.7169C134.569 22.1277 134.583 22.6342 134.583 23.2367V25.7422V30.3836ZM105.041 11.9824C103.508 10.9966 101.728 10.5037 99.7017 10.5037C97.7302 10.5037 96.0051 10.9692 94.5264 11.9002C93.0751 12.8312 91.9387 14.1182 91.1172 15.7612C90.3231 17.4041 89.9261 19.2799 89.9261 21.3883C89.9261 23.4694 90.3505 25.3314 91.1994 26.9744C92.0756 28.6174 93.2805 29.918 94.8139 30.8764C96.3747 31.8075 98.182 32.273 100.236 32.273C102.18 32.273 103.878 31.8075 105.329 30.8764C106.78 29.9454 107.903 28.6721 108.697 27.0565C109.518 25.441 109.929 23.62 109.929 21.5937C109.929 19.4852 109.491 17.5958 108.615 15.9255C107.766 14.2551 106.575 12.9407 105.041 11.9824ZM96.9498 14.0771C97.7165 13.3378 98.6338 12.9681 99.7017 12.9681C101.454 12.9681 102.823 13.7759 103.809 15.3915C104.795 17.0071 105.288 19.0745 105.288 21.5937C105.288 22.9628 105.124 24.2772 104.795 25.5368C104.466 26.7964 103.932 27.8233 103.193 28.6174C102.454 29.4115 101.468 29.8085 100.236 29.8085C98.6475 29.8085 97.3057 29.1376 96.2104 27.7959C95.1151 26.4267 94.5675 24.2909 94.5675 21.3883C94.5675 19.7727 94.7728 18.3351 95.1836 17.0755C95.5943 15.7886 96.1831 14.7891 96.9498 14.0771ZM84.1084 16.5416C84.1906 16.7333 84.2316 16.9112 84.2316 17.0755C84.2316 17.4315 84.0947 17.7327 83.8209 17.9792C83.5471 18.1982 83.2185 18.3351 82.8351 18.3899L80.6171 18.5953C80.2885 18.6227 79.9873 18.5405 79.7135 18.3488C79.467 18.1572 79.3027 17.897 79.2206 17.5684C78.8099 16.1993 78.18 15.0903 77.3312 14.2414C76.5097 13.3926 75.5102 12.9681 74.3328 12.9681C73.4291 12.9681 72.6077 13.3515 71.8683 14.1182C71.129 14.8849 70.5403 15.9118 70.1021 17.1988C69.664 18.4858 69.445 19.896 69.445 21.4294C69.445 24.0581 69.9105 26.1118 70.8415 27.5905C71.7725 29.0692 73.1279 29.8085 74.9078 29.8085C76.1127 29.8085 77.0847 29.3567 77.8241 28.4531C78.5634 27.5494 79.1111 26.2625 79.467 24.5921C79.6587 23.798 80.1379 23.4283 80.9046 23.4831L83.2458 23.6885C83.6292 23.7159 83.9441 23.8528 84.1906 24.0992C84.4644 24.3457 84.6013 24.6469 84.6013 25.0028C84.6013 25.1124 84.5739 25.2493 84.5191 25.4136C83.9167 27.4673 82.7803 29.1239 81.11 30.3836C79.4397 31.6432 77.3723 32.273 74.9078 32.273C71.5124 32.273 68.8699 31.3009 66.9805 29.3567C65.1185 27.3851 64.1875 24.7427 64.1875 21.4294C64.1875 19.3483 64.6119 17.4863 65.4608 15.8433C66.337 14.2004 67.5282 12.8997 69.0342 11.9413C70.5676 10.9829 72.3338 10.5037 74.3328 10.5037C75.8388 10.5037 77.2353 10.7775 78.5223 11.3252C79.8367 11.8728 80.9731 12.5985 81.9315 13.5021C82.9173 14.4057 83.6429 15.4189 84.1084 16.5416ZM58.8415 31.4515C59.1153 31.1777 59.2522 30.8217 59.2522 30.3836V25.7422V23.2367C59.2522 22.6342 59.2386 22.1277 59.2112 21.7169C59.1838 20.2382 59.0606 18.828 58.8415 17.4863C58.6224 16.1445 58.2117 14.9534 57.6093 13.9128C57.0069 12.8449 56.1306 12.0097 54.9805 11.4073C53.8305 10.8049 52.2833 10.5037 50.3392 10.5037C48.4771 10.5037 46.7931 10.7638 45.2871 11.2841C45.0406 10.7638 44.6162 10.5037 44.0138 10.5037H41.5493C41.1659 10.5037 40.8374 10.6406 40.5635 10.9144C40.2897 11.1883 40.1528 11.5168 40.1528 11.9002V30.4657C40.1528 30.8491 40.2897 31.1777 40.5635 31.4515C40.8374 31.7253 41.1659 31.8622 41.5493 31.8622H44.0138C44.3971 31.8622 44.7257 31.7253 44.9995 31.4515C45.2734 31.1777 45.4103 30.8491 45.4103 30.4657V17.5684C45.4103 15.9528 45.8073 14.7891 46.6014 14.0771C47.3955 13.3378 48.6414 12.9681 50.3392 12.9681C51.6809 12.9681 52.6393 13.7212 53.2144 15.2272C53.8168 16.7333 54.118 18.8554 54.118 21.5937V23.1134C54.1454 23.6885 54.1591 24.5373 54.1591 25.66V30.3425C54.1591 30.7806 54.296 31.1503 54.5698 31.4515C54.8436 31.7253 55.1722 31.8622 55.5556 31.8622H57.8557C58.2391 31.8622 58.5677 31.7253 58.8415 31.4515ZM32.1446 5.69799C32.1446 6.08135 32.0077 6.40994 31.7338 6.68377C31.46 6.9576 31.1314 7.09451 30.7481 7.09451H28.2836C27.9003 7.09451 27.5717 6.9576 27.2978 6.68377C27.024 6.40994 26.8871 6.08135 26.8871 5.69799V3.27462C26.8871 2.89126 27.024 2.56267 27.2978 2.28884C27.5717 2.01501 27.9003 1.8781 28.2836 1.8781H30.7481C31.1314 1.8781 31.46 2.01501 31.7338 2.28884C32.0077 2.56267 32.1446 2.89126 32.1446 3.27462V5.69799ZM32.1446 30.4657C32.1446 30.849 32.0077 31.1776 31.7338 31.4515C31.46 31.7253 31.1314 31.8622 30.7481 31.8622H28.2836C27.9003 31.8622 27.5717 31.7253 27.2978 31.4515C27.024 31.1776 26.8871 30.849 26.8871 30.4657V12.3109C26.8871 11.9276 27.024 11.599 27.2978 11.3251C27.5717 11.0513 27.9003 10.9144 28.2836 10.9144H30.7481C31.1314 10.9144 31.46 11.0513 31.7338 11.3251C32.0077 11.599 32.1446 11.9276 32.1446 12.3109V30.4657ZM12.9218 14.9158C12.9218 14.9158 15.4889 3.62368 15.9168 2.76795C16.3446 1.91222 17.2004 0.628749 18.9118 1.05663C20.6232 1.48452 20.6139 2.79735 20.3022 4.06566C19.9904 5.33398 12.9218 14.9158 12.9218 14.9158Z" fill="black"/>
</svg>
