<svg width="9" height="48" viewBox="0 0 9 48" fill="none" xmlns="http://www.w3.org/2000/svg">
<path fill-rule="evenodd" clip-rule="evenodd" d="M8.85072 12.7092C8.85072 12.4953 8.73712 12.3883 8.50993 12.3883L4.1003 12.3883L4.1003 11.4647C4.1003 11.2508 3.99703 11.1439 3.79049 11.1439C3.58395 11.1439 3.48068 11.2508 3.48068 11.4647L3.48068 12.3883L1.23972 12.3883C1.01252 12.3883 0.898924 12.4953 0.898924 12.7092L0.898924 13.2147C0.898924 13.4286 1.01252 13.5355 1.23972 13.5355L3.48068 13.5355L3.48068 14.4591C3.48068 14.673 3.58395 14.78 3.79049 14.78C3.99703 14.78 4.1003 14.673 4.1003 14.4591L4.1003 13.5355L8.50993 13.5355C8.73712 13.5355 8.85072 13.4286 8.85072 13.2147L8.85072 12.7092ZM1.00238 47.168C1.07123 47.2522 1.15384 47.2943 1.25023 47.2943L8.49979 47.2943C8.59617 47.2943 8.67879 47.2522 8.74764 47.168C8.81648 47.0774 8.85091 46.9705 8.85091 46.8474L8.85091 46.5269C8.85091 46.4038 8.81648 46.3002 8.74764 46.216C8.67879 46.1318 8.59617 46.0897 8.49979 46.0897L1.25023 46.0897C1.15384 46.0897 1.07123 46.1318 1.00238 46.216C0.933533 46.3002 0.89911 46.4038 0.89911 46.5269L0.89911 46.8474C0.89911 46.9705 0.933533 47.0774 1.00238 47.168ZM3.74983 1.95597C3.50199 2.31906 3.37806 2.74052 3.37806 3.22033C3.37806 3.68717 3.4951 4.09566 3.72918 4.44579C3.96326 4.78943 4.28684 5.05851 4.69992 5.25303C5.113 5.44106 5.5846 5.53508 6.11472 5.53508C6.63795 5.53508 7.10611 5.43458 7.51919 5.23358C7.93227 5.0261 8.25929 4.7408 8.50026 4.3777C8.73434 4.00812 8.85138 3.58018 8.85138 3.09389C8.85138 2.63353 8.73434 2.23153 8.50026 1.88789C8.26618 1.54424 7.94604 1.2784 7.53985 1.09037C7.13365 0.895851 6.67582 0.798595 6.16635 0.798595C5.63623 0.798595 5.16119 0.902336 4.74123 1.10982C4.32126 1.31082 3.9908 1.59287 3.74983 1.95597ZM4.27651 3.87196C4.09063 3.69041 3.99768 3.4732 3.99768 3.22033C3.99768 2.80536 4.20078 2.48116 4.60698 2.24775C5.01317 2.01432 5.53296 1.89761 6.16635 1.89761C6.51059 1.89761 6.84105 1.93652 7.15775 2.01432C7.47444 2.09213 7.73262 2.21857 7.93227 2.39363C8.13193 2.5687 8.23176 2.80212 8.23176 3.09389C8.23176 3.46996 8.06308 3.78767 7.72573 4.04703C7.3815 4.30638 6.84449 4.43606 6.11472 4.43606C5.70852 4.43606 5.34708 4.38743 5.03038 4.29017C4.7068 4.19291 4.45551 4.05351 4.27651 3.87196ZM3.70775 6.49194C3.7766 6.4012 3.84889 6.3299 3.92462 6.27805C3.99346 6.21972 4.05887 6.19055 4.12083 6.19055C4.16902 6.19055 4.21377 6.21324 4.25508 6.25861L4.38933 6.43361C4.43753 6.49842 4.46162 6.55999 4.46162 6.61833C4.46162 6.67666 4.44097 6.72527 4.39966 6.76416C4.2482 6.93267 4.14837 7.07527 4.10018 7.19193C4.0451 7.3086 4.01756 7.4285 4.01756 7.55165C4.01756 7.76554 4.12427 7.97294 4.3377 8.17387C4.55112 8.36831 4.83339 8.5271 5.18451 8.65025C5.53563 8.7734 5.91773 8.83497 6.33081 8.83497L8.40654 8.83497C8.63373 8.83497 8.74733 8.94191 8.74733 9.1558L8.74733 9.65163C8.74733 9.74237 8.71291 9.82014 8.64406 9.88496C8.57521 9.94977 8.4926 9.98218 8.39621 9.98218L3.82135 9.98218C3.59415 9.98218 3.48056 9.87524 3.48056 9.66135L3.48056 9.1558C3.48056 8.94191 3.58383 8.83497 3.79037 8.83497C3.66644 8.65349 3.57006 8.45581 3.50121 8.24192C3.43236 8.02803 3.39794 7.79794 3.39794 7.55165C3.39794 7.35073 3.42204 7.15953 3.47023 6.97805C3.51154 6.79657 3.59071 6.63453 3.70775 6.49194ZM8.37633 15.5116C8.48649 15.5116 8.57599 15.5441 8.64484 15.6089C8.71368 15.6737 8.74811 15.7515 8.74811 15.8423L8.74811 16.387C8.74811 16.4777 8.71368 16.5555 8.64484 16.6204C8.56911 16.6852 8.47616 16.7176 8.36601 16.7176L7.18873 16.7176C6.90646 16.7176 6.69303 16.7209 6.54845 16.7274L6.16635 16.7274C5.47789 16.7274 4.94432 16.7987 4.56567 16.9413C4.18701 17.0775 3.99768 17.3044 3.99768 17.6222C3.99768 18.0242 4.09063 18.3192 4.27651 18.5072C4.45551 18.6952 4.74811 18.7893 5.15431 18.7893L8.39699 18.7893C8.49337 18.7893 8.57599 18.8217 8.64484 18.8865C8.71368 18.9513 8.74811 19.0292 8.74811 19.1199L8.74811 19.7035C8.74811 19.7943 8.71368 19.8721 8.64484 19.9369C8.57599 20.0017 8.49337 20.0342 8.39699 20.0342L3.72918 20.0342C3.63279 20.0342 3.55018 20.0017 3.48133 19.9369C3.41248 19.8721 3.37806 19.7943 3.37806 19.7035L3.37806 19.1199C3.37806 18.9773 3.44347 18.8768 3.57427 18.8184C3.44347 18.4618 3.37806 18.0631 3.37806 17.6222C3.37806 17.1618 3.45379 16.7955 3.60526 16.5231C3.75672 16.2508 3.9667 16.0433 4.2352 15.9007C4.49682 15.758 4.7963 15.6608 5.13365 15.6089C5.471 15.557 5.82556 15.5279 6.19734 15.5214C6.30061 15.5149 6.42797 15.5116 6.57943 15.5116L7.20938 15.5116L8.37633 15.5116ZM3.74983 22.5071C3.50199 22.8702 3.37806 23.2917 3.37806 23.7715C3.37806 24.2383 3.4951 24.6468 3.72918 24.9969C3.96326 25.3406 4.28684 25.6097 4.69992 25.8042C5.113 25.9922 5.5846 26.0862 6.11472 26.0862C6.63795 26.0862 7.10611 25.9857 7.51919 25.7847C7.93227 25.5772 8.25929 25.2919 8.50026 24.9288C8.73434 24.5593 8.85138 24.1313 8.85138 23.645C8.85138 23.1847 8.73434 22.7827 8.50026 22.439C8.26618 22.0954 7.94604 21.8295 7.53985 21.6415C7.13365 21.447 6.67582 21.3497 6.16635 21.3497C5.63623 21.3497 5.16119 21.4535 4.74123 21.661C4.32126 21.862 3.9908 22.144 3.74983 22.5071ZM4.27651 24.4231C4.09063 24.2416 3.99768 24.0243 3.99768 23.7715C3.99768 23.3565 4.20078 23.0323 4.60698 22.7989C5.01317 22.5655 5.53296 22.4488 6.16635 22.4488C6.51059 22.4488 6.84105 22.4877 7.15775 22.5655C7.47444 22.6433 7.73262 22.7697 7.93227 22.9448C8.13193 23.1198 8.23176 23.3533 8.23176 23.645C8.23176 24.0211 8.06308 24.3388 7.72573 24.5982C7.3815 24.8575 6.84449 24.9872 6.11472 24.9872C5.70852 24.9872 5.34708 24.9386 5.03038 24.8413C4.7068 24.7441 4.45551 24.6046 4.27651 24.4231ZM4.89613 27.4637C4.94433 27.4442 4.98908 27.4345 5.03038 27.4345C5.11988 27.4345 5.19561 27.4669 5.25758 27.5318C5.31265 27.5966 5.34708 27.6744 5.36085 27.7652L5.41248 28.2904C5.41937 28.3682 5.39871 28.4395 5.35052 28.5044C5.30233 28.5627 5.23692 28.6016 5.15431 28.6211C4.81007 28.7183 4.53124 28.8675 4.31782 29.0685C4.10439 29.263 3.99768 29.4996 3.99768 29.7784C3.99768 29.9924 4.09407 30.1869 4.28684 30.362C4.47961 30.5371 4.73778 30.6765 5.06136 30.7802C5.38494 30.884 5.7395 30.9358 6.12505 30.9358C6.78597 30.9358 7.30233 30.8256 7.6741 30.6051C8.04587 30.3847 8.23176 30.0637 8.23176 29.6423C8.23176 29.357 8.11816 29.1268 7.89096 28.9517C7.66377 28.7767 7.34019 28.647 6.92023 28.5627C6.72057 28.5173 6.62763 28.4039 6.6414 28.2223L6.69303 27.6679C6.69992 27.5772 6.73434 27.5026 6.7963 27.4442C6.85826 27.3794 6.934 27.347 7.0235 27.347C7.05103 27.347 7.08546 27.3535 7.12677 27.3664C7.64312 27.5091 8.05964 27.7782 8.37633 28.1737C8.69303 28.5692 8.85138 29.0587 8.85138 29.6423C8.85138 30.4463 8.60697 31.072 8.11816 31.5194C7.62246 31.9603 6.95809 32.1807 6.12505 32.1807C5.60181 32.1807 5.13365 32.0802 4.72057 31.8792C4.30749 31.6717 3.98047 31.3897 3.73951 31.0331C3.49854 30.67 3.37806 30.2518 3.37806 29.7784C3.37806 29.4218 3.44691 29.0912 3.5846 28.7864C3.7223 28.4752 3.90474 28.2061 4.13193 27.9792C4.35913 27.7457 4.61386 27.5739 4.89613 27.4637ZM8.64484 33.4465C8.57599 33.3816 8.48649 33.3492 8.37633 33.3492L7.20938 33.3492L6.57943 33.3492C6.42797 33.3492 6.30061 33.3525 6.19734 33.359C5.82556 33.3654 5.471 33.3946 5.13365 33.4465C4.7963 33.4984 4.49682 33.5956 4.2352 33.7383C3.9667 33.8809 3.75672 34.0884 3.60526 34.3607C3.45379 34.633 3.37806 34.9994 3.37806 35.4597C3.37806 35.9006 3.44347 36.2994 3.57427 36.656C3.44347 36.7144 3.37806 36.8149 3.37806 36.9575L3.37806 37.5411C3.37806 37.6318 3.41248 37.7097 3.48133 37.7745C3.55018 37.8393 3.63279 37.8717 3.72918 37.8717L8.39699 37.8717C8.49337 37.8717 8.57599 37.8393 8.64484 37.7745C8.71368 37.7097 8.74811 37.6318 8.74811 37.5411L8.74811 36.9575C8.74811 36.8667 8.71368 36.7889 8.64484 36.7241C8.57599 36.6593 8.49337 36.6268 8.39699 36.6268L5.15431 36.6268C4.74811 36.6268 4.45551 36.5328 4.27651 36.3448C4.09063 36.1568 3.99768 35.8617 3.99768 35.4597C3.99768 35.142 4.18701 34.9151 4.56567 34.7789C4.94432 34.6363 5.47789 34.565 6.16635 34.565L6.54845 34.565C6.69303 34.5585 6.90646 34.5552 7.18873 34.5552L8.36601 34.5552C8.47616 34.5552 8.56911 34.5228 8.64484 34.458C8.71368 34.3931 8.74811 34.3153 8.74811 34.2246L8.74811 33.6799C8.74811 33.5891 8.71368 33.5113 8.64484 33.4465ZM2.16912 39.7693C2.26551 39.7693 2.34813 39.8017 2.41697 39.8665C2.48582 39.9312 2.52024 40.009 2.52024 40.0996L2.52024 40.6825C2.52024 40.7732 2.48582 40.8509 2.41697 40.9157C2.34813 40.9804 2.26551 41.0128 2.16912 41.0128L1.55983 41.0128C1.46345 41.0128 1.38083 40.9804 1.31198 40.9157C1.24314 40.8509 1.20871 40.7732 1.20871 40.6825L1.20871 40.0996C1.20871 40.009 1.24314 39.9312 1.31198 39.8665C1.38083 39.8017 1.46345 39.7693 1.55983 39.7693L2.16912 39.7693ZM8.39631 39.7693C8.4927 39.7693 8.57531 39.8017 8.64416 39.8665C8.713 39.9312 8.74743 40.009 8.74743 40.0996L8.74743 40.6825C8.74743 40.7732 8.713 40.8509 8.64416 40.9157C8.57531 40.9804 8.4927 41.0128 8.39631 41.0128L3.83177 41.0128C3.73539 41.0128 3.65277 40.9804 3.58392 40.9157C3.51508 40.8509 3.48065 40.7732 3.48065 40.6825L3.48065 40.0996C3.48065 40.009 3.51508 39.9312 3.58392 39.8665C3.65277 39.8017 3.73539 39.7693 3.83177 39.7693L8.39631 39.7693ZM4.48682 44.3198C4.48682 44.3198 1.64771 43.7128 1.43256 43.6116C1.21741 43.5104 0.894718 43.308 1.0023 42.9033C1.10988 42.4986 1.43996 42.5008 1.75884 42.5745C2.07772 42.6482 4.48682 44.3198 4.48682 44.3198Z" fill="black"/>
<path d="M4.1003 12.3883L3.9503 12.3883L3.9503 12.5383L4.1003 12.5383L4.1003 12.3883ZM3.48068 12.3883L3.48068 12.5383L3.63068 12.5383L3.63068 12.3883L3.48068 12.3883ZM3.48068 13.5355L3.63068 13.5355L3.63068 13.3855L3.48068 13.3855L3.48068 13.5355ZM4.1003 13.5355L4.1003 13.3855L3.9503 13.3855L3.9503 13.5355L4.1003 13.5355ZM1.00238 47.168L0.882838 47.2588L0.88626 47.263L1.00238 47.168ZM8.74764 47.168L8.86383 47.263L8.8671 47.2587L8.74764 47.168ZM8.74764 46.216L8.63152 46.3109L8.63152 46.3109L8.74764 46.216ZM1.00238 46.216L0.88626 46.121L0.88626 46.121L1.00238 46.216ZM3.74983 1.95597L3.87373 2.04054L3.87482 2.03891L3.74983 1.95597ZM3.72918 4.44579L3.60448 4.52916L3.60521 4.53023L3.72918 4.44579ZM4.69992 5.25303L4.63601 5.38875L4.63777 5.38955L4.69992 5.25303ZM7.51919 5.23358L7.58483 5.36847L7.58652 5.36762L7.51919 5.23358ZM8.50026 4.3777L8.62527 4.46067L8.62698 4.45797L8.50026 4.3777ZM7.53985 1.09037L7.47505 1.22567L7.47683 1.22649L7.53985 1.09037ZM4.74123 1.10982L4.80599 1.24514L4.80767 1.2443L4.74123 1.10982ZM4.27651 3.87196L4.38334 3.76663L4.38132 3.76466L4.27651 3.87196ZM4.60698 2.24775L4.68171 2.3778L4.68171 2.3778L4.60698 2.24775ZM7.15775 2.01432L7.19354 1.86866L7.19353 1.86866L7.15775 2.01432ZM7.93227 2.39363L8.03117 2.28085L8.03117 2.28085L7.93227 2.39363ZM7.72573 4.04703L7.816 4.16684L7.81716 4.16595L7.72573 4.04703ZM5.03038 4.29017L5.07442 4.14678L5.07356 4.14652L5.03038 4.29017ZM3.92462 6.27805L4.00936 6.40182L4.01571 6.39747L4.02158 6.3925L3.92462 6.27805ZM3.70775 6.49194L3.82378 6.58718L3.82725 6.58261L3.70775 6.49194ZM4.25508 6.25861L4.37452 6.16698L4.366 6.15763L4.25508 6.25861ZM4.38933 6.43361L4.50972 6.34409L4.50835 6.3423L4.38933 6.43361ZM4.39966 6.76416L4.29648 6.65457L4.2881 6.66389L4.39966 6.76416ZM4.10018 7.19193L4.23599 7.25605L4.23881 7.2492L4.10018 7.19193ZM4.3377 8.17387L4.23487 8.2831L4.23668 8.28475L4.3377 8.17387ZM5.18451 8.65025L5.13487 8.7918L5.18451 8.65025ZM6.33081 8.83497L6.33081 8.68497L6.33081 8.83497ZM8.40654 8.83497L8.40654 8.98497L8.40654 8.83497ZM8.64406 9.88496L8.54124 9.77574L8.54124 9.77574L8.64406 9.88496ZM3.79037 8.83497L3.79037 8.98497L4.07443 8.98497L3.91424 8.75039L3.79037 8.83497ZM3.50121 8.24192L3.644 8.19596L3.50121 8.24192ZM3.47023 6.97805L3.6153 7.01657L3.61649 7.01134L3.47023 6.97805ZM8.64484 15.6089L8.542 15.7181L8.542 15.7181L8.64484 15.6089ZM8.64484 16.6204L8.7425 16.7345L8.74768 16.7296L8.64484 16.6204ZM8.36601 16.7176L8.36601 16.5676L8.36601 16.7176ZM7.18873 16.7176L7.18873 16.8676L7.18873 16.7176ZM6.54845 16.7274L6.54845 16.8775L6.55518 16.8772L6.54845 16.7274ZM4.56567 16.9413L4.61643 17.0825L4.61855 17.0817L4.56567 16.9413ZM4.27651 18.5072L4.38517 18.4038L4.38318 18.4017L4.27651 18.5072ZM3.48133 19.9369L3.37849 20.0461L3.37849 20.0461L3.48133 19.9369ZM3.57427 18.8184L3.63539 18.9554L3.76335 18.8983L3.7151 18.7668L3.57427 18.8184ZM3.60526 16.5231L3.73634 16.596L3.60526 16.5231ZM4.2352 15.9007L4.30558 16.0331L4.30701 16.0324L4.2352 15.9007ZM5.13365 15.6089L5.15645 15.7572L5.15645 15.7572L5.13365 15.6089ZM6.19734 15.5214L6.19995 15.6715L6.20673 15.6711L6.19734 15.5214ZM3.74983 22.5071L3.87373 22.5917L3.87482 22.59L3.74983 22.5071ZM3.72918 24.9969L3.60448 25.0803L3.60521 25.0814L3.72918 24.9969ZM4.69992 25.8042L4.63601 25.9399L4.63777 25.9407L4.69992 25.8042ZM7.51919 25.7847L7.58483 25.9196L7.58652 25.9188L7.51919 25.7847ZM8.50026 24.9288L8.62527 25.0118L8.62698 25.0091L8.50026 24.9288ZM8.50026 22.439L8.37629 22.5235L8.50026 22.439ZM7.53985 21.6415L7.47505 21.7768L7.47683 21.7776L7.53985 21.6415ZM4.74123 21.661L4.80599 21.7963L4.80767 21.7954L4.74123 21.661ZM4.27651 24.4231L4.38334 24.3178L4.38132 24.3158L4.27651 24.4231ZM4.60698 22.7989L4.53224 22.6688L4.53224 22.6688L4.60698 22.7989ZM7.15775 22.5655L7.12196 22.7111L7.12196 22.7111L7.15775 22.5655ZM7.93227 22.9448L8.03117 22.832L8.03117 22.832L7.93227 22.9448ZM7.72573 24.5982L7.816 24.718L7.81716 24.7171L7.72573 24.5982ZM5.03038 24.8413L5.07442 24.6979L5.07356 24.6977L5.03038 24.8413ZM4.89613 27.4637L4.9507 27.6034L4.95227 27.6028L4.89613 27.4637ZM5.25758 27.5318L5.37209 27.4345L5.36602 27.4281L5.25758 27.5318ZM5.36085 27.7652L5.51033 27.7505L5.50915 27.7427L5.36085 27.7652ZM5.41248 28.2904L5.56191 28.2772L5.56176 28.2757L5.41248 28.2904ZM5.35052 28.5044L5.46633 28.6L5.47091 28.5938L5.35052 28.5044ZM5.15431 28.6211L5.1199 28.4749L5.11352 28.4767L5.15431 28.6211ZM4.31782 29.0685L4.41887 29.1793L4.42066 29.1777L4.31782 29.0685ZM4.28684 30.362L4.18599 30.473L4.186 30.473L4.28684 30.362ZM5.06136 30.7802L5.01557 30.923L5.06136 30.7802ZM7.6741 30.6051L7.59759 30.4761L7.59759 30.4761L7.6741 30.6051ZM7.89096 28.9517L7.79941 29.0706L7.79941 29.0706L7.89096 28.9517ZM6.92023 28.5627L6.88696 28.709L6.89071 28.7098L6.92023 28.5627ZM6.6414 28.2223L6.49202 28.2084L6.49183 28.211L6.6414 28.2223ZM6.69303 27.6679L6.84241 27.6818L6.8426 27.6793L6.69303 27.6679ZM6.7963 27.4442L6.89928 27.5536L6.90475 27.5479L6.7963 27.4442ZM7.12677 27.3664L7.08181 27.5096L7.08682 27.511L7.12677 27.3664ZM8.37633 28.1737L8.49342 28.0799L8.37633 28.1737ZM8.11816 31.5194L8.21786 31.6315L8.21943 31.63L8.11816 31.5194ZM4.72057 31.8792L4.65324 32.0133L4.65494 32.0141L4.72057 31.8792ZM3.73951 31.0331L3.61452 31.116L3.61522 31.1171L3.73951 31.0331ZM3.5846 28.7864L3.7213 28.8482L3.72178 28.8471L3.5846 28.7864ZM4.13193 27.9792L4.23795 28.0853L4.23942 28.0838L4.13193 27.9792ZM8.64484 33.4465L8.542 33.5557L8.542 33.5557L8.64484 33.4465ZM6.19734 33.359L6.19995 33.5091L6.20674 33.5087L6.19734 33.359ZM4.2352 33.7383L4.30558 33.8707L4.30701 33.87L4.2352 33.7383ZM3.60526 34.3607L3.73634 34.4336L3.60526 34.3607ZM3.57427 36.656L3.63539 36.793L3.76335 36.7359L3.7151 36.6044L3.57427 36.656ZM3.48133 37.7745L3.37849 37.8837L3.37849 37.8837L3.48133 37.7745ZM8.64484 37.7745L8.74768 37.8837L8.74768 37.8837L8.64484 37.7745ZM8.64484 36.7241L8.74768 36.6149L8.74768 36.6149L8.64484 36.7241ZM8.39699 36.6268L8.39699 36.7768L8.39699 36.6268ZM5.15431 36.6268L5.15431 36.4768L5.15431 36.6268ZM4.27651 36.3448L4.38517 36.2413L4.38318 36.2393L4.27651 36.3448ZM4.56567 34.7789L4.61643 34.9201L4.61855 34.9193L4.56567 34.7789ZM6.54845 34.565L6.54845 34.7151L6.55517 34.7148L6.54845 34.565ZM8.64484 34.458L8.7425 34.572L8.74768 34.5672L8.64484 34.458ZM2.41697 39.8665L2.3142 39.9757L2.3142 39.9757L2.41697 39.8665ZM2.41697 40.9157L2.51975 41.0249L2.51975 41.0249L2.41697 40.9157ZM1.31198 40.9157L1.20921 41.0249L1.20921 41.0249L1.31198 40.9157ZM1.31198 39.8665L1.41476 39.9757L1.41476 39.9757L1.31198 39.8665ZM8.64416 39.8665L8.54138 39.9757L8.54138 39.9757L8.64416 39.8665ZM8.39631 39.7693L8.39631 39.6193L8.39631 39.7693ZM8.64416 40.9157L8.74694 41.0249L8.74694 41.0249L8.64416 40.9157ZM8.39631 41.0128L8.39631 40.8628L8.39631 41.0128ZM3.83177 41.0128L3.83177 41.1628L3.83177 41.0128ZM3.58392 40.9157L3.48115 41.0249L3.48115 41.0249L3.58392 40.9157ZM3.58392 39.8665L3.6867 39.9757L3.6867 39.9757L3.58392 39.8665ZM3.83177 39.7693L3.83177 39.9193L3.83177 39.7693ZM1.43256 43.6116L1.4964 43.4758H1.4964L1.43256 43.6116ZM4.48682 44.3198L4.45545 44.4665L4.57233 44.1966L4.48682 44.3198ZM1.0023 42.9033L1.14726 42.9419H1.14726L1.0023 42.9033ZM1.75884 42.5745L1.72505 42.7207L1.75884 42.5745ZM8.50993 12.5383C8.60259 12.5383 8.64417 12.5603 8.6627 12.5778C8.67953 12.5936 8.70072 12.6277 8.70072 12.7092L9.00072 12.7092C9.00072 12.5767 8.96511 12.4504 8.86834 12.3593C8.77328 12.2698 8.64447 12.2383 8.50993 12.2383L8.50993 12.5383ZM4.1003 12.5383L8.50993 12.5383L8.50993 12.2383L4.1003 12.2383L4.1003 12.5383ZM3.9503 11.4647L3.9503 12.3883L4.2503 12.3883L4.2503 11.4647L3.9503 11.4647ZM3.79049 11.2939C3.86928 11.2939 3.90114 11.314 3.91494 11.3283C3.92969 11.3436 3.9503 11.3796 3.9503 11.4647L4.2503 11.4647C4.2503 11.3359 4.21927 11.2116 4.13075 11.1199C4.04128 11.0273 3.91824 10.9939 3.79049 10.9939L3.79049 11.2939ZM3.63068 11.4647C3.63068 11.3796 3.65129 11.3436 3.66603 11.3283C3.67984 11.314 3.7117 11.2939 3.79049 11.2939L3.79049 10.9939C3.66274 10.9939 3.53969 11.0273 3.45023 11.1199C3.3617 11.2116 3.33068 11.3359 3.33068 11.4647L3.63068 11.4647ZM3.63068 12.3883L3.63068 11.4647L3.33068 11.4647L3.33068 12.3883L3.63068 12.3883ZM1.23972 12.5383L3.48068 12.5383L3.48068 12.2383L1.23972 12.2383L1.23972 12.5383ZM1.04892 12.7092C1.04892 12.6277 1.07011 12.5936 1.08694 12.5778C1.10547 12.5603 1.14706 12.5383 1.23972 12.5383L1.23972 12.2383C1.10518 12.2383 0.97637 12.2698 0.881302 12.3593C0.784535 12.4504 0.748924 12.5767 0.748924 12.7092L1.04892 12.7092ZM1.04892 13.2147L1.04892 12.7092L0.748924 12.7092L0.748924 13.2147L1.04892 13.2147ZM1.23972 13.3855C1.14706 13.3855 1.10547 13.3636 1.08694 13.3461C1.07011 13.3303 1.04892 13.2961 1.04892 13.2147L0.748924 13.2147C0.748924 13.3472 0.784535 13.4734 0.881303 13.5645C0.97637 13.654 1.10518 13.6855 1.23972 13.6855L1.23972 13.3855ZM3.48068 13.3855L1.23972 13.3855L1.23972 13.6855L3.48068 13.6855L3.48068 13.3855ZM3.63068 14.4591L3.63068 13.5355L3.33068 13.5355L3.33068 14.4591L3.63068 14.4591ZM3.79049 14.63C3.7117 14.63 3.67984 14.6099 3.66603 14.5956C3.65129 14.5803 3.63068 14.5442 3.63068 14.4591L3.33068 14.4591C3.33068 14.5879 3.3617 14.7123 3.45023 14.804C3.53969 14.8966 3.66274 14.93 3.79049 14.93L3.79049 14.63ZM3.9503 14.4591C3.9503 14.5442 3.92969 14.5803 3.91494 14.5956C3.90114 14.6099 3.86928 14.63 3.79049 14.63L3.79049 14.93C3.91824 14.93 4.04128 14.8966 4.13075 14.804C4.21927 14.7123 4.2503 14.5879 4.2503 14.4591L3.9503 14.4591ZM3.9503 13.5355L3.9503 14.4591L4.2503 14.4591L4.2503 13.5355L3.9503 13.5355ZM8.50993 13.3855L4.1003 13.3855L4.1003 13.6855L8.50993 13.6855L8.50993 13.3855ZM8.70072 13.2147C8.70072 13.2961 8.67953 13.3303 8.6627 13.3461C8.64417 13.3636 8.60259 13.3855 8.50993 13.3855L8.50993 13.6855C8.64447 13.6855 8.77328 13.654 8.86834 13.5645C8.96511 13.4734 9.00072 13.3472 9.00072 13.2147L8.70072 13.2147ZM8.70072 12.7092L8.70072 13.2147L9.00072 13.2147L9.00072 12.7092L8.70072 12.7092ZM1.25023 47.1443C1.20498 47.1443 1.16298 47.1275 1.1185 47.0731L0.88626 47.263C0.979471 47.377 1.1027 47.4443 1.25023 47.4443L1.25023 47.1443ZM8.49979 47.1443L1.25023 47.1443L1.25023 47.4443L8.49979 47.4443L8.49979 47.1443ZM8.63152 47.0731C8.58703 47.1275 8.54503 47.1443 8.49979 47.1443L8.49979 47.4443C8.64731 47.4443 8.77055 47.377 8.86376 47.263L8.63152 47.0731ZM8.70091 46.8474C8.70091 46.9405 8.67557 47.0149 8.62817 47.0773L8.8671 47.2587C8.9574 47.1398 9.00091 47.0004 9.00091 46.8474L8.70091 46.8474ZM8.70091 46.5269L8.70091 46.8474L9.00091 46.8474L9.00091 46.5269L8.70091 46.5269ZM8.63152 46.3109C8.67559 46.3648 8.70091 46.4336 8.70091 46.5269L9.00091 46.5269C9.00091 46.374 8.95738 46.2355 8.86376 46.121L8.63152 46.3109ZM8.49979 46.2397C8.54503 46.2397 8.58703 46.2565 8.63152 46.3109L8.86376 46.121C8.77055 46.007 8.64731 45.9397 8.49979 45.9397L8.49979 46.2397ZM1.25023 46.2397L8.49979 46.2397L8.49979 45.9397L1.25023 45.9397L1.25023 46.2397ZM1.1185 46.3109C1.16298 46.2565 1.20498 46.2397 1.25023 46.2397L1.25023 45.9397C1.1027 45.9397 0.979471 46.007 0.88626 46.121L1.1185 46.3109ZM1.04911 46.5269C1.04911 46.4336 1.07443 46.3648 1.1185 46.3109L0.88626 46.121C0.792637 46.2355 0.74911 46.374 0.74911 46.5269L1.04911 46.5269ZM1.04911 46.8474L1.04911 46.5269L0.74911 46.5269L0.74911 46.8474L1.04911 46.8474ZM1.12184 47.0773C1.07445 47.0149 1.04911 46.9405 1.04911 46.8474L0.74911 46.8474C0.74911 47.0004 0.792621 47.1398 0.882916 47.2587L1.12184 47.0773ZM3.52806 3.22033C3.52806 2.76781 3.64444 2.37643 3.87372 2.04053L3.62594 1.8714C3.35953 2.2617 3.22806 2.71323 3.22806 3.22033L3.52806 3.22033ZM3.85388 4.36242C3.63806 4.03961 3.52806 3.66084 3.52806 3.22033L3.22806 3.22033C3.22806 3.7135 3.35214 4.15171 3.60448 4.52916L3.85388 4.36242ZM4.76382 5.11732C4.37254 4.93307 4.07069 4.68071 3.85315 4.36134L3.60521 4.53023C3.85583 4.89816 4.20114 5.18396 4.63602 5.38874L4.76382 5.11732ZM6.11472 5.38508C5.60247 5.38508 5.15262 5.29429 4.76206 5.11651L4.63777 5.38955C5.07338 5.58784 5.56673 5.68508 6.11472 5.68508L6.11472 5.38508ZM7.45356 5.0987C7.0636 5.28845 6.61839 5.38508 6.11472 5.38508L6.11472 5.68508C6.65752 5.68508 7.14862 5.58071 7.58482 5.36846L7.45356 5.0987ZM8.37528 4.29477C8.14964 4.63477 7.84308 4.90304 7.45186 5.09954L7.58652 5.36762C8.02147 5.14915 8.36895 4.84684 8.62524 4.46065L8.37528 4.29477ZM8.70138 3.09389C8.70138 3.55504 8.59075 3.9545 8.37354 4.29744L8.62698 4.45797C8.87793 4.06175 9.00138 3.60533 9.00138 3.09389L8.70138 3.09389ZM8.37629 1.97233C8.59161 2.28844 8.70138 2.66029 8.70138 3.09389L9.00138 3.09389C9.00138 2.60678 8.87707 2.17463 8.62423 1.80344L8.37629 1.97233ZM7.47683 1.22649C7.86036 1.40403 8.15865 1.65282 8.37629 1.97233L8.62423 1.80344C8.37371 1.43566 8.03172 1.15277 7.60286 0.954246L7.47683 1.22649ZM6.16635 0.948597C6.65635 0.948597 7.0916 1.04203 7.47506 1.22565L7.60463 0.955078C7.1757 0.749679 6.69529 0.648597 6.16635 0.648597L6.16635 0.948597ZM4.80767 1.2443C5.2044 1.0483 5.65622 0.948597 6.16635 0.948597L6.16635 0.648597C5.61624 0.648598 5.11799 0.756374 4.67479 0.975342L4.80767 1.2443ZM3.87482 2.03891C4.09977 1.69994 4.40872 1.43526 4.80598 1.24512L4.67647 0.974521C4.23381 1.18639 3.88182 1.48581 3.62485 1.87303L3.87482 2.03891ZM3.84768 3.22033C3.84768 3.51483 3.95781 3.77037 4.1717 3.97927L4.38132 3.76466C4.22344 3.61045 4.14768 3.43157 4.14768 3.22033L3.84768 3.22033ZM4.53224 2.11769C4.08672 2.37371 3.84768 2.74381 3.84768 3.22033L4.14768 3.22033C4.14768 2.86691 4.31484 2.58862 4.68171 2.3778L4.53224 2.11769ZM6.16635 1.74762C5.51561 1.74762 4.9678 1.86739 4.53224 2.11769L4.68171 2.3778C5.05854 2.16125 5.55031 2.04761 6.16635 2.04761L6.16635 1.74762ZM7.19353 1.86866C6.8645 1.78782 6.52198 1.74762 6.16635 1.74762L6.16635 2.04761C6.49919 2.04761 6.81761 2.08522 7.12196 2.15999L7.19353 1.86866ZM8.03117 2.28085C7.80975 2.0867 7.52835 1.95092 7.19354 1.86866L7.12196 2.15999C7.42054 2.23335 7.65549 2.35043 7.83338 2.50642L8.03117 2.28085ZM8.38176 3.09389C8.38176 2.76371 8.26674 2.48741 8.03117 2.28085L7.83338 2.50642C7.99712 2.64999 8.08176 2.84053 8.08176 3.09389L8.38176 3.09389ZM7.81716 4.16595C8.1859 3.88245 8.38176 3.52311 8.38176 3.09389L8.08176 3.09389C8.08176 3.41681 7.94026 3.69289 7.63431 3.92811L7.81716 4.16595ZM6.11472 4.58606C6.85665 4.58606 7.43316 4.45527 7.816 4.16683L7.63547 3.92723C7.32984 4.15749 6.83234 4.28606 6.11472 4.28606L6.11472 4.58606ZM4.98635 4.43356C5.32011 4.53606 5.69684 4.58606 6.11472 4.58606L6.11472 4.28606C5.72021 4.28606 5.37405 4.2388 5.07442 4.14678L4.98635 4.43356ZM4.1697 3.97728C4.37118 4.18163 4.64709 4.3316 4.98721 4.43383L5.07356 4.14652C4.76651 4.05423 4.53985 3.9254 4.38332 3.76665L4.1697 3.97728ZM3.83987 6.15428C3.7481 6.21712 3.66458 6.30067 3.58825 6.40128L3.82725 6.58261C3.88861 6.50173 3.94967 6.44269 4.00936 6.40182L3.83987 6.15428ZM4.12083 6.04055C4.01022 6.04055 3.91152 6.09255 3.82765 6.1636L4.02158 6.3925C4.07541 6.34689 4.10752 6.34055 4.12083 6.34055L4.12083 6.04055ZM4.366 6.15763C4.30454 6.09013 4.22215 6.04055 4.12083 6.04055L4.12083 6.34055C4.12096 6.34055 4.12097 6.34056 4.1209 6.34055C4.12087 6.34055 4.12084 6.34054 4.12081 6.34054C4.12078 6.34053 4.12076 6.34053 4.12076 6.34053C4.12076 6.34053 4.12079 6.34054 4.12086 6.34056C4.12092 6.34058 4.12102 6.34061 4.12117 6.34066C4.12146 6.34077 4.12197 6.34098 4.12271 6.34136C4.12568 6.34286 4.13312 6.34746 4.14417 6.35959L4.366 6.15763ZM4.50835 6.3423L4.37409 6.16731L4.13607 6.34991L4.27032 6.52491L4.50835 6.3423ZM4.61162 6.61833C4.61162 6.51743 4.56989 6.42506 4.50971 6.3441L4.26896 6.52311C4.30516 6.57179 4.31162 6.60257 4.31162 6.61833L4.61162 6.61833ZM4.50248 6.87337C4.57484 6.80525 4.61162 6.7167 4.61162 6.61833L4.31162 6.61833C4.31162 6.63662 4.30709 6.64529 4.29684 6.65495L4.50248 6.87337ZM4.23881 7.2492C4.27725 7.15616 4.3636 7.02867 4.51122 6.86443L4.2881 6.66389C4.1328 6.83668 4.01949 6.99437 3.96154 7.13467L4.23881 7.2492ZM4.16756 7.55165C4.16756 7.45171 4.18974 7.35359 4.23582 7.25597L3.96453 7.1279C3.90046 7.26361 3.86756 7.40531 3.86756 7.55165L4.16756 7.55165ZM4.44052 8.06465C4.24568 7.88123 4.16756 7.71066 4.16756 7.55165L3.86756 7.55165C3.86756 7.82042 4.00286 8.06466 4.23488 8.28308L4.44052 8.06465ZM5.23416 8.5087C4.89679 8.39038 4.63362 8.24055 4.43872 8.06298L4.23668 8.28475C4.46862 8.49607 4.77 8.66383 5.13487 8.7918L5.23416 8.5087ZM6.33081 8.68497C5.93279 8.68497 5.56767 8.62567 5.23416 8.5087L5.13487 8.7918C5.5036 8.92112 5.90267 8.98497 6.33081 8.98497L6.33081 8.68497ZM8.40654 8.68497L6.33081 8.68497L6.33081 8.98497L8.40654 8.98497L8.40654 8.68497ZM8.89733 9.1558C8.89733 9.02334 8.86172 8.89706 8.76495 8.80596C8.66988 8.71646 8.54108 8.68497 8.40654 8.68497L8.40654 8.98497C8.4992 8.98497 8.54079 9.00695 8.55931 9.0244C8.57614 9.04024 8.59733 9.07437 8.59733 9.1558L8.89733 9.1558ZM8.89733 9.65163L8.89733 9.1558L8.59733 9.1558L8.59733 9.65163L8.89733 9.65163ZM8.74688 9.99417C8.84441 9.90236 8.89733 9.78564 8.89733 9.65163L8.59733 9.65163C8.59733 9.6991 8.5814 9.73793 8.54124 9.77574L8.74688 9.99417ZM8.39621 10.1322C8.53 10.1322 8.64962 10.0857 8.74688 9.99417L8.54124 9.77574C8.50081 9.8138 8.4552 9.83218 8.39621 9.83218L8.39621 10.1322ZM3.82135 10.1322L8.39621 10.1322L8.39621 9.83218L3.82135 9.83218L3.82135 10.1322ZM3.33056 9.66135C3.33056 9.79381 3.36617 9.92009 3.46294 10.0112C3.558 10.1007 3.68681 10.1322 3.82135 10.1322L3.82135 9.83218C3.72869 9.83218 3.6871 9.8102 3.66857 9.79276C3.65174 9.77692 3.63056 9.74278 3.63056 9.66135L3.33056 9.66135ZM3.33056 9.1558L3.33056 9.66135L3.63056 9.66135L3.63056 9.1558L3.33056 9.1558ZM3.79037 8.68497C3.66262 8.68497 3.53957 8.71833 3.45011 8.81098C3.36158 8.90266 3.33056 9.02702 3.33056 9.1558L3.63056 9.1558C3.63056 9.07069 3.65117 9.03464 3.66591 9.01938C3.67971 9.00508 3.71158 8.98497 3.79037 8.98497L3.79037 8.68497ZM3.35843 8.28788C3.43159 8.51517 3.53426 8.72591 3.66649 8.91956L3.91424 8.75039C3.79863 8.58107 3.70853 8.39644 3.644 8.19596L3.35843 8.28788ZM3.24794 7.55165C3.24794 7.81206 3.28436 8.05779 3.35843 8.28788L3.644 8.19596C3.58037 7.99828 3.54794 7.78383 3.54794 7.55165L3.24794 7.55165ZM3.32525 6.93955C3.2735 7.13444 3.24794 7.33864 3.24794 7.55165L3.54794 7.55165C3.54794 7.36282 3.57057 7.18462 3.6152 7.01654L3.32525 6.93955ZM3.59181 6.39677C3.45986 6.55752 3.3704 6.74079 3.32397 6.94476L3.61649 7.01134C3.65268 6.85234 3.72156 6.71154 3.82369 6.58711L3.59181 6.39677ZM8.74768 15.4997C8.64645 15.4044 8.51797 15.3616 8.37633 15.3616L8.37633 15.6616C8.45501 15.6616 8.50553 15.6837 8.542 15.7181L8.74768 15.4997ZM8.89811 15.8423C8.89811 15.7083 8.8452 15.5916 8.74768 15.4997L8.542 15.7181C8.58216 15.7559 8.59811 15.7948 8.59811 15.8423L8.89811 15.8423ZM8.89811 16.387L8.89811 15.8423L8.59811 15.8423L8.59811 16.387L8.89811 16.387ZM8.74768 16.7296C8.8452 16.6377 8.89811 16.521 8.89811 16.387L8.59811 16.387C8.59811 16.4345 8.58216 16.4734 8.542 16.5112L8.74768 16.7296ZM8.36601 16.8676C8.50791 16.8676 8.63657 16.8249 8.74239 16.7343L8.54728 16.5064C8.50164 16.5455 8.44441 16.5676 8.36601 16.5676L8.36601 16.8676ZM7.18873 16.8676L8.36601 16.8676L8.36601 16.5676L7.18873 16.5676L7.18873 16.8676ZM6.55518 16.8772C6.6963 16.8709 6.90702 16.8676 7.18873 16.8676L7.18873 16.5676C6.90589 16.5676 6.68976 16.5709 6.54173 16.5775L6.55518 16.8772ZM6.16635 16.8774L6.54845 16.8774L6.54845 16.5774L6.16635 16.5774L6.16635 16.8774ZM4.61855 17.0817C4.97248 16.9484 5.4851 16.8774 6.16635 16.8774L6.16635 16.5774C5.47067 16.5774 4.91617 16.649 4.51279 16.801L4.61855 17.0817ZM4.14768 17.6222C4.14768 17.4956 4.18444 17.3942 4.25486 17.3098C4.32734 17.2229 4.44347 17.1447 4.61642 17.0825L4.51491 16.8002C4.3092 16.8742 4.14134 16.9775 4.0245 17.1176C3.90558 17.2601 3.84768 17.431 3.84768 17.6222L4.14768 17.6222ZM4.38318 18.4017C4.23658 18.2535 4.14768 18.0048 4.14768 17.6222L3.84768 17.6222C3.84768 18.0435 3.94467 18.3849 4.16984 18.6127L4.38318 18.4017ZM5.15431 18.6393C4.76648 18.6393 4.52329 18.5489 4.38515 18.4038L4.16787 18.6106C4.38773 18.8416 4.72974 18.9393 5.15431 18.9393L5.15431 18.6393ZM8.39699 18.6393L5.15431 18.6393L5.15431 18.9393L8.39699 18.9393L8.39699 18.6393ZM8.74768 18.7773C8.65041 18.6857 8.53079 18.6393 8.39699 18.6393L8.39699 18.9393C8.45596 18.9393 8.50157 18.9576 8.542 18.9957L8.74768 18.7773ZM8.89811 19.1199C8.89811 18.9859 8.8452 18.8692 8.74768 18.7773L8.542 18.9957C8.58216 19.0335 8.59811 19.0724 8.59811 19.1199L8.89811 19.1199ZM8.89811 19.7035L8.89811 19.1199L8.59811 19.1199L8.59811 19.7035L8.89811 19.7035ZM8.74768 20.0461C8.8452 19.9543 8.89811 19.8375 8.89811 19.7035L8.59811 19.7035C8.59811 19.751 8.58216 19.7899 8.542 19.8277L8.74768 20.0461ZM8.39699 20.1842C8.53079 20.1842 8.65041 20.1377 8.74768 20.0461L8.542 19.8277C8.50157 19.8658 8.45596 19.8842 8.39699 19.8842L8.39699 20.1842ZM3.72918 20.1842L8.39699 20.1842L8.39699 19.8842L3.72918 19.8842L3.72918 20.1842ZM3.37849 20.0461C3.47575 20.1377 3.59538 20.1842 3.72918 20.1842L3.72918 19.8842C3.67021 19.8842 3.6246 19.8658 3.58417 19.8277L3.37849 20.0461ZM3.22806 19.7035C3.22806 19.8375 3.28097 19.9543 3.37849 20.0461L3.58417 19.8277C3.544 19.7899 3.52806 19.751 3.52806 19.7035L3.22806 19.7035ZM3.22806 19.1199L3.22806 19.7035L3.52806 19.7035L3.52806 19.1199L3.22806 19.1199ZM3.51316 18.6814C3.42656 18.7201 3.35271 18.7769 3.30139 18.8558C3.25005 18.9346 3.22806 19.0252 3.22806 19.1199L3.52806 19.1199C3.52806 19.0721 3.53877 19.041 3.55284 19.0194C3.56692 18.9977 3.59118 18.9751 3.63539 18.9554L3.51316 18.6814ZM3.22806 17.6222C3.22806 18.0779 3.29568 18.4945 3.43345 18.8701L3.7151 18.7668C3.59125 18.4291 3.52806 18.0482 3.52806 17.6222L3.22806 17.6222ZM3.47417 16.4502C3.30577 16.753 3.22806 17.1476 3.22806 17.6222L3.52806 17.6222C3.52806 17.176 3.60181 16.8379 3.73634 16.596L3.47417 16.4502ZM4.16483 15.7682C3.8701 15.9248 3.63933 16.1533 3.47417 16.4502L3.73634 16.596C3.87411 16.3483 4.0633 16.1619 4.30558 16.0331L4.16483 15.7682ZM5.11086 15.4606C4.7588 15.5148 4.44231 15.6169 4.1634 15.769L4.30701 16.0324C4.55133 15.8992 4.83381 15.8068 5.15645 15.7572L5.11086 15.4606ZM6.19472 15.3714C5.81678 15.378 5.45545 15.4077 5.11086 15.4606L5.15645 15.7572C5.48656 15.7064 5.83434 15.6777 6.19995 15.6713L6.19472 15.3714ZM6.57943 15.3616C6.42613 15.3616 6.2954 15.3649 6.18794 15.3717L6.20673 15.6711C6.30581 15.6649 6.42981 15.6616 6.57943 15.6616L6.57943 15.3616ZM7.20938 15.3616L6.57943 15.3616L6.57943 15.6616L7.20938 15.6616L7.20938 15.3616ZM8.37633 15.3616L7.20938 15.3616L7.20938 15.6616L8.37633 15.6616L8.37633 15.3616ZM3.52806 23.7715C3.52806 23.3189 3.64444 22.9276 3.87372 22.5917L3.62594 22.4225C3.35953 22.8128 3.22806 23.2644 3.22806 23.7715L3.52806 23.7715ZM3.85388 24.9136C3.63806 24.5907 3.52806 24.212 3.52806 23.7715L3.22806 23.7715C3.22806 24.2646 3.35214 24.7028 3.60448 25.0803L3.85388 24.9136ZM4.76382 25.6685C4.37253 25.4842 4.07069 25.2318 3.85315 24.9125L3.60521 25.0814C3.85583 25.4493 4.20114 25.7351 4.63601 25.9399L4.76382 25.6685ZM6.11472 25.9362C5.60247 25.9362 5.15262 25.8454 4.76206 25.6676L4.63777 25.9407C5.07338 26.139 5.56673 26.2362 6.11472 26.2362L6.11472 25.9362ZM7.45356 25.6498C7.0636 25.8396 6.61839 25.9362 6.11472 25.9362L6.11472 26.2362C6.65752 26.2362 7.14862 26.1318 7.58482 25.9196L7.45356 25.6498ZM8.37528 24.8459C8.14964 25.1859 7.84308 25.4542 7.45186 25.6507L7.58652 25.9188C8.02147 25.7003 8.36895 25.398 8.62524 25.0118L8.37528 24.8459ZM8.70138 23.645C8.70138 24.1062 8.59075 24.5056 8.37354 24.8486L8.62698 25.0091C8.87793 24.6129 9.00138 24.1565 9.00138 23.645L8.70138 23.645ZM8.37629 22.5235C8.59161 22.8396 8.70138 23.2114 8.70138 23.645L9.00138 23.645C9.00138 23.1579 8.87707 22.7258 8.62423 22.3546L8.37629 22.5235ZM7.47683 21.7776C7.86036 21.9552 8.15865 22.204 8.37629 22.5235L8.62423 22.3546C8.37371 21.9868 8.03172 21.7039 7.60286 21.5054L7.47683 21.7776ZM6.16635 21.4997C6.65635 21.4997 7.09159 21.5932 7.47506 21.7768L7.60463 21.5062C7.17571 21.3008 6.69529 21.1997 6.16635 21.1997L6.16635 21.4997ZM4.80767 21.7954C5.2044 21.5994 5.65622 21.4997 6.16635 21.4997L6.16635 21.1997C5.61624 21.1997 5.11799 21.3075 4.67479 21.5265L4.80767 21.7954ZM3.87482 22.59C4.09977 22.2511 4.40872 21.9864 4.80598 21.7963L4.67647 21.5257C4.23381 21.7375 3.88182 22.0369 3.62485 22.4242L3.87482 22.59ZM3.84768 23.7715C3.84768 24.066 3.95781 24.3215 4.1717 24.5304L4.38132 24.3158C4.22344 24.1616 4.14768 23.9827 4.14768 23.7715L3.84768 23.7715ZM4.53224 22.6688C4.08672 22.9248 3.84768 23.2949 3.84768 23.7715L4.14768 23.7715C4.14768 23.418 4.31484 23.1398 4.68171 22.9289L4.53224 22.6688ZM6.16635 22.2988C5.51561 22.2988 4.9678 22.4185 4.53224 22.6688L4.68171 22.9289C5.05854 22.7124 5.55031 22.5988 6.16635 22.5988L6.16635 22.2988ZM7.19354 22.4198C6.8645 22.339 6.52198 22.2988 6.16635 22.2988L6.16635 22.5988C6.4992 22.5988 6.81761 22.6364 7.12196 22.7111L7.19354 22.4198ZM8.03117 22.832C7.80975 22.6378 7.52835 22.5021 7.19353 22.4198L7.12196 22.7111C7.42054 22.7845 7.65549 22.9016 7.83338 23.0576L8.03117 22.832ZM8.38176 23.645C8.38176 23.3149 8.26674 23.0385 8.03117 22.832L7.83338 23.0576C7.99711 23.2011 8.08176 23.3917 8.08176 23.645L8.38176 23.645ZM7.81716 24.7171C8.1859 24.4336 8.38176 24.0742 8.38176 23.645L8.08176 23.645C8.08176 23.968 7.94026 24.244 7.63431 24.4792L7.81716 24.7171ZM6.11472 25.1372C6.85665 25.1372 7.43316 25.0064 7.816 24.718L7.63547 24.4784C7.32984 24.7086 6.83234 24.8372 6.11472 24.8372L6.11472 25.1372ZM4.98635 24.9847C5.32011 25.0872 5.69684 25.1372 6.11472 25.1372L6.11472 24.8372C5.72021 24.8372 5.37405 24.7899 5.07442 24.6979L4.98635 24.9847ZM4.1697 24.5284C4.37118 24.7328 4.64709 24.8827 4.98721 24.985L5.07356 24.6977C4.76651 24.6054 4.53985 24.4765 4.38332 24.3178L4.1697 24.5284ZM5.03038 27.2845C4.96557 27.2845 4.90159 27.2997 4.83999 27.3246L4.95227 27.6028C4.98706 27.5888 5.01258 27.5845 5.03038 27.5845L5.03038 27.2845ZM5.36602 27.4281C5.27582 27.3338 5.16094 27.2845 5.03038 27.2845L5.03038 27.5845C5.07883 27.5845 5.11541 27.6001 5.14913 27.6354L5.36602 27.4281ZM5.50915 27.7427C5.49155 27.6266 5.44644 27.5224 5.3719 27.4347L5.14326 27.6289C5.17887 27.6708 5.20261 27.7222 5.21254 27.7877L5.50915 27.7427ZM5.56176 28.2757L5.51013 27.7505L5.21157 27.7799L5.2632 28.3051L5.56176 28.2757ZM5.47091 28.5938C5.54022 28.5006 5.57214 28.393 5.5619 28.2772L5.26307 28.3036C5.26659 28.3434 5.25721 28.3784 5.23013 28.4149L5.47091 28.5938ZM5.18868 28.7671C5.29911 28.7411 5.39462 28.6865 5.46618 28.5999L5.23486 28.4088C5.21004 28.4389 5.17474 28.4622 5.11993 28.4751L5.18868 28.7671ZM4.42066 29.1777C4.61307 28.9964 4.86902 28.8575 5.19509 28.7654L5.11352 28.4767C4.75112 28.5791 4.44942 28.7385 4.21498 28.9593L4.42066 29.1777ZM4.14768 29.7784C4.14768 29.5435 4.23536 29.3466 4.41886 29.1793L4.21678 28.9576C3.97343 29.1794 3.84768 29.4558 3.84768 29.7784L4.14768 29.7784ZM4.38768 30.251C4.21887 30.0976 4.14768 29.9411 4.14768 29.7784L3.84768 29.7784C3.84768 30.0437 3.96927 30.2762 4.18599 30.473L4.38768 30.251ZM5.10716 30.6374C4.79803 30.5383 4.56053 30.4079 4.38768 30.251L4.186 30.473C4.39869 30.6662 4.67754 30.8147 5.01557 30.923L5.10716 30.6374ZM6.12505 30.7858C5.75299 30.7858 5.4141 30.7358 5.10716 30.6374L5.01557 30.923C5.35579 31.0321 5.72602 31.0858 6.12505 31.0858L6.12505 30.7858ZM7.59759 30.4761C7.25812 30.6774 6.77217 30.7858 6.12505 30.7858L6.12505 31.0858C6.79978 31.0858 7.34653 30.9738 7.7506 30.7342L7.59759 30.4761ZM8.08176 29.6423C8.08176 30.0091 7.92523 30.2818 7.59759 30.4761L7.7506 30.7342C8.1665 30.4875 8.38176 30.1183 8.38176 29.6423L8.08176 29.6423ZM7.79941 29.0706C7.98998 29.2174 8.08176 29.4038 8.08176 29.6423L8.38176 29.6423C8.38176 29.3102 8.24634 29.0362 7.98252 28.8329L7.79941 29.0706ZM6.89071 28.7098C7.29831 28.7916 7.59721 28.9148 7.79941 29.0706L7.98252 28.8329C7.73033 28.6386 7.38208 28.5024 6.94974 28.4156L6.89071 28.7098ZM6.49183 28.211C6.48276 28.3304 6.50826 28.4453 6.58474 28.5386C6.6593 28.6297 6.76726 28.6818 6.88697 28.709L6.95348 28.4164C6.87354 28.3983 6.8352 28.371 6.81682 28.3485C6.80035 28.3284 6.78626 28.2957 6.79097 28.2337L6.49183 28.211ZM6.54368 27.654L6.49204 28.2084L6.79075 28.2362L6.84238 27.6818L6.54368 27.654ZM6.69346 27.335C6.60227 27.4209 6.55296 27.5313 6.54346 27.6566L6.8426 27.6793C6.84687 27.623 6.86641 27.5843 6.89914 27.5534L6.69346 27.335ZM7.0235 27.197C6.89294 27.197 6.77806 27.2462 6.68786 27.3406L6.90475 27.5479C6.93847 27.5126 6.97505 27.497 7.0235 27.497L7.0235 27.197ZM7.17169 27.2233C7.12315 27.2081 7.0724 27.197 7.0235 27.197L7.0235 27.497C7.02967 27.497 7.04777 27.4989 7.08184 27.5095L7.17169 27.2233ZM8.49342 28.0799C8.15583 27.6583 7.71163 27.3724 7.16671 27.2218L7.08682 27.511C7.5746 27.6458 7.96344 27.898 8.25924 28.2674L8.49342 28.0799ZM9.00138 29.6423C9.00138 29.0301 8.83458 28.506 8.49342 28.0799L8.25924 28.2674C8.55147 28.6324 8.70138 29.0874 8.70138 29.6423L9.00138 29.6423ZM8.21943 31.63C8.7458 31.1483 9.00138 30.4787 9.00138 29.6423L8.70138 29.6423C8.70138 30.4139 8.46814 30.9957 8.01688 31.4087L8.21943 31.63ZM6.12505 32.3307C6.9851 32.3307 7.68819 32.1026 8.21785 31.6315L8.01847 31.4073C7.55673 31.818 6.93108 32.0307 6.12505 32.0307L6.12505 32.3307ZM4.65494 32.0141C5.09114 32.2264 5.58224 32.3307 6.12505 32.3307L6.12505 32.0307C5.62138 32.0307 5.17616 31.9341 4.7862 31.7443L4.65494 32.0141ZM3.61522 31.1171C3.87163 31.4965 4.21896 31.7951 4.65325 32.0133L4.7879 31.7452C4.39603 31.5484 4.08931 31.2829 3.86379 30.9491L3.61522 31.1171ZM3.22806 29.7784C3.22806 30.2786 3.35584 30.7262 3.61453 31.116L3.86449 30.9501C3.64125 30.6137 3.52806 30.2249 3.52806 29.7784L3.22806 29.7784ZM3.44791 28.7246C3.30087 29.0501 3.22806 29.402 3.22806 29.7784L3.52806 29.7784C3.52806 29.4417 3.59295 29.1322 3.7213 28.8482L3.44791 28.7246ZM4.02593 27.873C3.78486 28.1138 3.59216 28.3986 3.44743 28.7257L3.72178 28.8471C3.85243 28.5518 4.02462 28.2984 4.23794 28.0853L4.02593 27.873ZM4.84157 27.324C4.53789 27.4426 4.26544 27.6269 4.02444 27.8745L4.23942 28.0838C4.45282 27.8645 4.68983 27.7053 4.95069 27.6034L4.84157 27.324ZM8.37633 33.4992C8.455 33.4992 8.50553 33.5213 8.542 33.5557L8.74768 33.3373C8.64645 33.242 8.51797 33.1992 8.37633 33.1992L8.37633 33.4992ZM7.20938 33.4992L8.37633 33.4992L8.37633 33.1992L7.20938 33.1992L7.20938 33.4992ZM6.57943 33.4992L7.20938 33.4992L7.20938 33.1992L6.57943 33.1992L6.57943 33.4992ZM6.20674 33.5087C6.30581 33.5024 6.42981 33.4992 6.57943 33.4992L6.57943 33.1992C6.42613 33.1992 6.2954 33.2025 6.18794 33.2093L6.20674 33.5087ZM5.15645 33.5947C5.48656 33.544 5.83434 33.5153 6.19995 33.5089L6.19472 33.209C5.81678 33.2156 5.45545 33.2452 5.11086 33.2982L5.15645 33.5947ZM4.30701 33.87C4.55133 33.7367 4.83381 33.6444 5.15645 33.5947L5.11086 33.2982C4.7588 33.3524 4.44231 33.4545 4.1634 33.6066L4.30701 33.87ZM3.73634 34.4336C3.87411 34.1859 4.0633 33.9994 4.30558 33.8707L4.16483 33.6058C3.8701 33.7624 3.63933 33.9909 3.47417 34.2878L3.73634 34.4336ZM3.52806 35.4597C3.52806 35.0136 3.60181 34.6755 3.73634 34.4336L3.47417 34.2878C3.30577 34.5906 3.22806 34.9852 3.22806 35.4597L3.52806 35.4597ZM3.7151 36.6044C3.59125 36.2667 3.52806 35.8858 3.52806 35.4597L3.22806 35.4597C3.22806 35.9155 3.29568 36.3321 3.43345 36.7077L3.7151 36.6044ZM3.52806 36.9575C3.52806 36.9097 3.53877 36.8786 3.55284 36.857C3.56692 36.8353 3.59118 36.8127 3.63539 36.793L3.51316 36.519C3.42656 36.5577 3.35271 36.6145 3.30139 36.6933C3.25005 36.7722 3.22806 36.8627 3.22806 36.9575L3.52806 36.9575ZM3.52806 37.5411L3.52806 36.9575L3.22806 36.9575L3.22806 37.5411L3.52806 37.5411ZM3.58417 37.6653C3.544 37.6275 3.52806 37.5886 3.52806 37.5411L3.22806 37.5411C3.22806 37.6751 3.28097 37.7918 3.37849 37.8837L3.58417 37.6653ZM3.72918 37.7217C3.67021 37.7217 3.6246 37.7034 3.58417 37.6653L3.37849 37.8837C3.47575 37.9753 3.59538 38.0217 3.72918 38.0217L3.72918 37.7217ZM8.39699 37.7217L3.72918 37.7217L3.72918 38.0217L8.39699 38.0217L8.39699 37.7217ZM8.542 37.6653C8.50157 37.7034 8.45596 37.7217 8.39699 37.7217L8.39699 38.0217C8.53079 38.0217 8.65041 37.9753 8.74768 37.8837L8.542 37.6653ZM8.59811 37.5411C8.59811 37.5886 8.58216 37.6275 8.542 37.6653L8.74768 37.8837C8.8452 37.7918 8.89811 37.6751 8.89811 37.5411L8.59811 37.5411ZM8.59811 36.9575L8.59811 37.5411L8.89811 37.5411L8.89811 36.9575L8.59811 36.9575ZM8.542 36.8333C8.58216 36.8711 8.59811 36.91 8.59811 36.9575L8.89811 36.9575C8.89811 36.8235 8.8452 36.7068 8.74768 36.6149L8.542 36.8333ZM8.39699 36.7768C8.45596 36.7768 8.50157 36.7952 8.542 36.8333L8.74768 36.6149C8.65041 36.5233 8.53079 36.4768 8.39699 36.4768L8.39699 36.7768ZM5.15431 36.7768L8.39699 36.7768L8.39699 36.4768L5.15431 36.4768L5.15431 36.7768ZM4.16787 36.4482C4.38773 36.6792 4.72974 36.7768 5.15431 36.7768L5.15431 36.4768C4.76648 36.4768 4.52329 36.3865 4.38515 36.2414L4.16787 36.4482ZM3.84768 35.4597C3.84768 35.8811 3.94467 36.2225 4.16984 36.4502L4.38318 36.2393C4.23658 36.091 4.14768 35.8424 4.14768 35.4597L3.84768 35.4597ZM4.51491 34.6378C4.3092 34.7117 4.14134 34.8151 4.0245 34.9552C3.90558 35.0977 3.84768 35.2686 3.84768 35.4597L4.14768 35.4597C4.14768 35.3332 4.18444 35.2317 4.25486 35.1473C4.32734 35.0605 4.44347 34.9823 4.61642 34.9201L4.51491 34.6378ZM6.16635 34.415C5.47067 34.415 4.91617 34.4866 4.51279 34.6386L4.61855 34.9193C4.97248 34.786 5.4851 34.715 6.16635 34.715L6.16635 34.415ZM6.54845 34.415L6.16635 34.415L6.16635 34.715L6.54845 34.715L6.54845 34.415ZM7.18873 34.4052C6.90589 34.4052 6.68976 34.4085 6.54173 34.4151L6.55517 34.7148C6.6963 34.7085 6.90702 34.7052 7.18873 34.7052L7.18873 34.4052ZM8.36601 34.4052L7.18873 34.4052L7.18873 34.7052L8.36601 34.7052L8.36601 34.4052ZM8.54728 34.344C8.50164 34.3831 8.44441 34.4052 8.36601 34.4052L8.36601 34.7052C8.50791 34.7052 8.63657 34.6625 8.74239 34.5719L8.54728 34.344ZM8.59811 34.2246C8.59811 34.2721 8.58216 34.3109 8.542 34.3488L8.74768 34.5672C8.8452 34.4753 8.89811 34.3586 8.89811 34.2246L8.59811 34.2246ZM8.59811 33.6799L8.59811 34.2246L8.89811 34.2246L8.89811 33.6799L8.59811 33.6799ZM8.542 33.5557C8.58216 33.5935 8.59811 33.6324 8.59811 33.6799L8.89811 33.6799C8.89811 33.5459 8.8452 33.4291 8.74768 33.3373L8.542 33.5557ZM2.51975 39.7572C2.42248 39.6657 2.30287 39.6193 2.16912 39.6193L2.16912 39.9193C2.22815 39.9193 2.27377 39.9377 2.3142 39.9757L2.51975 39.7572ZM2.67024 40.0996C2.67024 39.9657 2.61729 39.849 2.51975 39.7572L2.3142 39.9757C2.35435 40.0135 2.37024 40.0523 2.37024 40.0996L2.67024 40.0996ZM2.67024 40.6825L2.67024 40.0996L2.37024 40.0996L2.37024 40.6825L2.67024 40.6825ZM2.51975 41.0249C2.61729 40.9332 2.67024 40.8165 2.67024 40.6825L2.37024 40.6825C2.37024 40.7299 2.35435 40.7686 2.31419 40.8064L2.51975 41.0249ZM2.16912 41.1628C2.30287 41.1628 2.42248 41.1164 2.51975 41.0249L2.3142 40.8064C2.27377 40.8444 2.22815 40.8628 2.16912 40.8628L2.16912 41.1628ZM1.55983 41.1628L2.16912 41.1628L2.16912 40.8628L1.55983 40.8628L1.55983 41.1628ZM1.20921 41.0249C1.30648 41.1164 1.42609 41.1628 1.55983 41.1628L1.55983 40.8628C1.50081 40.8628 1.45518 40.8444 1.41476 40.8064L1.20921 41.0249ZM1.05871 40.6825C1.05871 40.8165 1.11167 40.9332 1.20921 41.0249L1.41476 40.8064C1.37461 40.7686 1.35871 40.7299 1.35871 40.6825L1.05871 40.6825ZM1.05871 40.0996L1.05871 40.6825L1.35871 40.6825L1.35871 40.0996L1.05871 40.0996ZM1.20921 39.7572C1.11167 39.849 1.05871 39.9657 1.05871 40.0996L1.35871 40.0996C1.35871 40.0523 1.37461 40.0135 1.41476 39.9757L1.20921 39.7572ZM1.55983 39.6193C1.42609 39.6193 1.30648 39.6657 1.20921 39.7572L1.41476 39.9757C1.45518 39.9377 1.50081 39.9193 1.55983 39.9193L1.55983 39.6193ZM2.16912 39.6193L1.55983 39.6193L1.55983 39.9193L2.16912 39.9193L2.16912 39.6193ZM8.74694 39.7572C8.64966 39.6657 8.53006 39.6193 8.39631 39.6193L8.39631 39.9193C8.45533 39.9193 8.50096 39.9377 8.54138 39.9757L8.74694 39.7572ZM8.89743 40.0996C8.89743 39.9657 8.84448 39.849 8.74694 39.7572L8.54138 39.9757C8.58153 40.0135 8.59743 40.0523 8.59743 40.0996L8.89743 40.0996ZM8.89743 40.6825L8.89743 40.0996L8.59743 40.0996L8.59743 40.6825L8.89743 40.6825ZM8.74694 41.0249C8.84448 40.9332 8.89743 40.8165 8.89743 40.6825L8.59743 40.6825C8.59743 40.7299 8.58153 40.7686 8.54138 40.8064L8.74694 41.0249ZM8.39631 41.1628C8.53006 41.1628 8.64966 41.1164 8.74694 41.0249L8.54138 40.8064C8.50096 40.8444 8.45533 40.8628 8.39631 40.8628L8.39631 41.1628ZM3.83177 41.1628L8.39631 41.1628L8.39631 40.8628L3.83177 40.8628L3.83177 41.1628ZM3.48115 41.0249C3.57842 41.1164 3.69803 41.1628 3.83177 41.1628L3.83177 40.8628C3.77275 40.8628 3.72712 40.8444 3.6867 40.8064L3.48115 41.0249ZM3.33065 40.6825C3.33065 40.8165 3.38361 40.9332 3.48115 41.0249L3.6867 40.8064C3.64655 40.7686 3.63065 40.7299 3.63065 40.6825L3.33065 40.6825ZM3.33065 40.0996L3.33065 40.6825L3.63065 40.6825L3.63065 40.0996L3.33065 40.0996ZM3.48115 39.7572C3.38361 39.849 3.33065 39.9657 3.33065 40.0996L3.63065 40.0996C3.63065 40.0523 3.64655 40.0135 3.6867 39.9757L3.48115 39.7572ZM3.83177 39.6193C3.69803 39.6193 3.57842 39.6657 3.48115 39.7572L3.6867 39.9757C3.72712 39.9377 3.77275 39.9193 3.83177 39.9193L3.83177 39.6193ZM8.39631 39.6193L3.83177 39.6193L3.83177 39.9193L8.39631 39.9193L8.39631 39.6193ZM1.36873 43.7473C1.41045 43.7669 1.49325 43.7909 1.5868 43.816C1.68686 43.8427 1.81686 43.8751 1.96555 43.9108C2.26314 43.9822 2.63912 44.0678 3.0077 44.1501C3.37642 44.2324 3.73834 44.3115 4.00803 44.37C4.1429 44.3993 4.25472 44.4234 4.33285 44.4402C4.37191 44.4486 4.40255 44.4552 4.42343 44.4597C4.43387 44.4619 4.44187 44.4636 4.44726 44.4648C4.44996 44.4654 4.452 44.4658 4.45337 44.4661C4.45406 44.4662 4.45458 44.4663 4.45493 44.4664C4.4551 44.4665 4.45523 44.4665 4.45532 44.4665C4.45536 44.4665 4.4554 44.4665 4.45542 44.4665C4.45544 44.4665 4.45545 44.4665 4.48682 44.3198C4.51819 44.1732 4.51818 44.1732 4.51816 44.1732C4.51813 44.1732 4.5181 44.1731 4.51806 44.1731C4.51798 44.1731 4.51785 44.1731 4.51768 44.1731C4.51734 44.173 4.51683 44.1729 4.51615 44.1727C4.51479 44.1724 4.51276 44.172 4.51008 44.1714C4.50471 44.1703 4.49675 44.1686 4.48634 44.1663C4.46552 44.1619 4.43495 44.1553 4.39597 44.1469C4.31799 44.1301 4.20633 44.106 4.07166 44.0768C3.8023 44.0184 3.441 43.9394 3.07305 43.8573C2.70495 43.7751 2.33081 43.6899 2.03556 43.6191C1.88783 43.5836 1.76073 43.552 1.66435 43.5262C1.61609 43.5133 1.57649 43.5021 1.54631 43.4928C1.53122 43.4882 1.51923 43.4843 1.5101 43.481C1.50557 43.4794 1.50212 43.4782 1.4996 43.4772C1.49698 43.4761 1.49606 43.4757 1.4964 43.4758L1.36873 43.7473ZM0.857332 42.8648C0.790034 43.118 0.85854 43.319 0.980806 43.4669C1.09655 43.6068 1.2557 43.6942 1.36873 43.7473L1.4964 43.4758C1.39427 43.4278 1.2845 43.3634 1.21201 43.2757C1.14603 43.1959 1.10698 43.0934 1.14726 42.9419L0.857332 42.8648ZM1.79263 42.4284C1.62819 42.3904 1.4334 42.3632 1.25815 42.4159C1.06685 42.4734 0.92293 42.618 0.857332 42.8648L1.14726 42.9419C1.18925 42.7839 1.26415 42.7273 1.34451 42.7032C1.44091 42.6742 1.57061 42.685 1.72505 42.7207L1.79263 42.4284ZM4.48682 44.3198C4.57233 44.1966 4.57232 44.1966 4.5723 44.1966C4.57228 44.1966 4.57225 44.1966 4.57221 44.1965C4.57213 44.1965 4.57202 44.1964 4.57187 44.1963C4.57157 44.1961 4.57113 44.1958 4.57054 44.1954C4.56937 44.1946 4.56763 44.1933 4.56533 44.1918C4.56073 44.1886 4.55392 44.1839 4.54503 44.1777C4.52725 44.1654 4.50115 44.1474 4.46783 44.1244C4.4012 44.0784 4.30569 44.0127 4.19009 43.9337C3.95894 43.7756 3.64727 43.564 3.32549 43.3499C3.00395 43.1361 2.67126 42.9191 2.3984 42.7507C2.26212 42.6666 2.13934 42.5937 2.03964 42.5391C1.94674 42.4882 1.85609 42.443 1.79263 42.4284L1.72505 42.7207C1.72504 42.7207 1.72541 42.7207 1.7262 42.721C1.72698 42.7212 1.72807 42.7215 1.72949 42.722C1.73238 42.7229 1.73622 42.7242 1.7411 42.7261C1.75095 42.7299 1.7635 42.7352 1.77896 42.7424C1.80996 42.7567 1.84899 42.7768 1.89559 42.8023C1.98867 42.8532 2.10642 42.923 2.24083 43.006C2.50936 43.1717 2.83874 43.3865 3.15934 43.5997C3.47969 43.8128 3.79022 44.0237 4.02074 44.1813C4.13598 44.2601 4.23117 44.3256 4.29753 44.3714C4.33071 44.3942 4.35668 44.4122 4.37434 44.4244C4.38318 44.4305 4.38993 44.4352 4.39447 44.4383C4.39674 44.4399 4.39846 44.4411 4.3996 44.4419C4.40017 44.4423 4.4006 44.4426 4.40089 44.4428C4.40103 44.4429 4.40114 44.443 4.40121 44.443C4.40124 44.443 4.40127 44.4431 4.40129 44.4431C4.4013 44.4431 4.40131 44.4431 4.48682 44.3198Z" fill="black"/>
</svg>
